<svg width="638" height="687" viewBox="0 0 638 687" fill="none" xmlns="http://www.w3.org/2000/svg">
<g id="undraw_file_synchronization_8dh6 1" clip-path="url(#clip0)">
<path id="Vector" d="M152 686V585" stroke="#3F3D56" stroke-width="2" stroke-miterlimit="10"/>
<path id="Vector_2" d="M152.5 599C159.956 599 166 592.732 166 585C166 577.268 159.956 571 152.5 571C145.044 571 139 577.268 139 585C139 592.732 145.044 599 152.5 599Z" fill="#3F3D56"/>
<path id="Vector_3" d="M152 647C152 647 150.047 603.335 110 608.411Z" fill="#3F3D56"/>
<path id="Vector_4" d="M74.5 685L471 686.985" stroke="#3F3D56" stroke-width="2" stroke-miterlimit="10"/>
<path id="Vector_5" d="M242.147 183.841L239.549 167.797L236.868 184.004L229.053 184.247C234.403 164.825 234.696 145.92 229.582 127.661C225.852 114.344 229.244 99.6043 238.886 91.237C243.629 87.026 249.689 84.5957 256.027 84.3629L277.906 83.6847C290.81 83.2847 302.104 92.3097 306.765 105.327C308.523 110.493 309.17 115.972 308.665 121.406C307.019 141.527 307.808 161.774 311.014 181.706L242.147 183.841Z" fill="#2F2E41"/>
<path id="Vector_6" d="M286.938 137.222C286.938 137.222 273.46 171.478 311.646 175.97C349.833 180.463 278.514 219.211 278.514 219.211L229.658 193.379C229.658 193.379 268.968 165.301 256.613 140.03L286.938 137.222Z" fill="#9F616A"/>
<path id="Vector_7" opacity="0.1" d="M286.938 137.222C286.938 137.222 273.46 171.478 311.646 175.97C349.833 180.463 278.514 219.211 278.514 219.211L229.658 193.379C229.658 193.379 268.968 165.301 256.613 140.03L286.938 137.222Z" fill="black"/>
<path id="Vector_8" d="M374.542 616.799L385.773 649.931H357.133L352.079 624.099L374.542 616.799Z" fill="#9F616A"/>
<path id="Vector_9" d="M266.721 616.799V641.508H249.313L247.067 611.183L266.721 616.799Z" fill="#9F616A"/>
<path id="Vector_10" d="M372.857 638.138C372.857 638.138 387.458 628.03 388.581 633.084C389.704 638.138 400.374 667.34 417.221 669.586C434.068 671.832 451.476 681.379 431.821 684.748C412.167 688.118 382.404 683.625 377.911 680.256C373.419 676.886 372.857 681.379 372.857 681.379C372.857 681.379 349.833 679.694 349.833 678.571C349.833 677.448 350.956 669.586 349.833 667.34C348.71 665.093 352.079 653.301 352.079 653.301L349.833 633.084C349.833 633.084 359.941 634.769 359.941 635.892C359.941 637.015 372.857 638.138 372.857 638.138Z" fill="#2F2E41"/>
<path id="Vector_11" d="M260.544 631.399C260.544 631.399 270.652 628.03 270.652 631.399C270.652 634.769 279.637 682.198 275.706 684.444C271.775 686.69 248.19 689.241 244.82 681.94C241.451 674.64 247.067 658.916 247.067 658.916C247.067 658.916 250.436 645.439 247.067 643.754C243.697 642.069 242.012 629.153 260.544 631.399Z" fill="#2F2E41"/>
<path id="Vector_12" d="M329.617 336.578L357.133 514.594C357.133 514.594 395.32 619.607 377.35 624.099C359.38 628.592 359.379 636.454 348.71 630.276C338.04 624.099 320.07 521.894 320.07 521.894L279.637 405.65L267.844 524.702C267.844 524.702 279.637 624.099 270.091 624.099C260.544 624.099 237.52 627.468 235.274 622.414C233.027 617.36 224.604 505.047 224.604 505.047C224.604 505.047 202.296 351.88 228.331 340.017C254.367 328.154 329.617 336.578 329.617 336.578Z" fill="#2F2E41"/>
<path id="Vector_13" d="M268.968 155.754C251.91 155.754 238.081 141.926 238.081 124.868C238.081 107.81 251.91 93.9818 268.968 93.9818C286.025 93.9818 299.854 107.81 299.854 124.868C299.854 141.926 286.025 155.754 268.968 155.754Z" fill="#9F616A"/>
<path id="Vector_14" d="M305.701 184.921C304.173 185.686 302.728 186.605 301.388 187.664C296.539 191.634 284.68 199.57 268.968 197.871C248.19 195.625 235.358 188.811 235.358 188.811C235.358 188.811 212.249 195.063 209.442 204.048C206.634 213.034 229.658 259.643 229.658 259.643C229.658 259.643 238.081 277.614 231.904 289.406C225.727 301.199 219.55 332.085 216.18 338.263C212.811 344.44 209.442 365.218 218.988 357.356C228.535 349.494 248.19 330.401 279.076 338.263C309.962 346.124 343.656 349.494 341.409 346.686C339.163 343.878 332.986 266.382 332.986 266.382L345.34 191.694C345.34 191.694 332.465 169.274 306.612 175.149C306.612 175.149 310.202 182.568 305.701 184.921Z" fill="#6C63FF"/>
<path id="Vector_15" d="M350.956 336.016L332.424 362.41C332.424 362.41 317.262 361.287 317.824 354.548C317.824 354.548 309.962 360.725 307.716 357.356C305.469 353.986 317.262 340.509 321.193 338.824C325.124 337.139 332.986 335.455 334.671 333.77C336.355 332.085 341.971 325.908 341.971 325.908L350.956 336.016Z" fill="#9F616A"/>
<path id="Vector_16" d="M235.835 323.662C235.835 323.662 252.035 329.849 257.693 336.864C263.352 343.878 271.214 350.055 267.283 350.055C263.352 350.055 254.367 346.124 254.367 346.124C254.367 346.124 244.82 364.656 231.904 353.425L222.919 339.947C222.919 339.947 225.166 321.416 235.835 323.662Z" fill="#9F616A"/>
<g id="ball">
<path id="Vector_17" d="M109.5 557C115.851 557 121 552.299 121 546.5C121 540.701 115.851 536 109.5 536C103.149 536 98 540.701 98 546.5C98 552.299 103.149 557 109.5 557Z" fill="#FF6584"/>
</g>
<path id="Vector_18" d="M337.479 190.571H345.34C345.34 190.571 373.419 254.028 366.118 286.037C358.818 318.046 352.641 338.824 349.833 339.947C347.025 341.07 344.217 328.256 337.479 330.171C337.479 330.171 343.094 293.337 340.286 291.091C337.478 288.845 338.04 284.352 337.479 278.737C336.917 273.121 329.617 256.274 329.617 256.274L337.479 190.571Z" fill="#6C63FF"/>
<path id="Vector_19" d="M222.358 202.364L209.442 204.048C209.442 204.048 202.703 223.703 202.141 238.304C201.58 252.905 200.457 258.52 198.772 263.574C197.087 268.628 203.826 287.16 202.703 294.46C201.58 301.761 225.727 347.248 225.727 345.001C225.727 342.755 233.027 323.1 238.082 325.347C238.082 325.347 234.151 314.115 229.658 311.307C225.166 308.5 229.658 286.599 229.658 286.599L233.589 250.658L222.358 202.364Z" fill="#6C63FF"/>
<path id="Vector_20" d="M238.5 92H295.5V118H238.5V92Z" fill="#2F2E41"/>
<path id="Vector_21" d="M298.276 134.848C297.205 134.577 296.885 132.188 297.561 129.51C298.237 126.833 299.653 124.882 300.724 125.152C301.795 125.423 302.115 127.812 301.439 130.49C300.763 133.167 299.347 135.118 298.276 134.848Z" fill="#9F616A"/>
</g>
<defs>
<clipPath id="clip0">
<rect width="637.5" height="686.772" fill="white"/>
</clipPath>
</defs>
</svg>
