<?xml version='1.0' encoding='utf-8'?>
<svg xmlns:xlink="http://www.w3.org/1999/xlink" xmlns="http://www.w3.org/2000/svg" width="793.70081" height="1122.5197" viewBox="0 0 210 297" version="1.1" id="svg8"> <defs id="defs2"> <linearGradient id="linearGradient844"> <stop style="stop-color:#bb9277;stop-opacity:1;" offset="0" id="stop840"/> <stop style="stop-color:#ac7b5a;stop-opacity:1" offset="1" id="stop842"/> </linearGradient> <linearGradient id="linearGradient836"> <stop style="stop-color:#a27151;stop-opacity:1;" offset="0" id="stop832"/> <stop style="stop-color:#845c42;stop-opacity:1" offset="1" id="stop834"/> </linearGradient> <linearGradient xlink:href="#linearGradient836" id="linearGradient838" x1="56.395004" y1="51.131763" x2="18.853594" y2="67.91732" gradientUnits="userSpaceOnUse"/> <linearGradient xlink:href="#linearGradient844" id="linearGradient846" x1="208.67329" y1="336.03232" x2="503.7793" y2="25.720703" gradientUnits="userSpaceOnUse"/> <linearGradient xlink:href="#linearGradient844" id="linearGradient874" x1="126.89648" y1="142.1875" x2="106.31837" y2="166.23242" gradientUnits="userSpaceOnUse"/> <linearGradient xlink:href="#linearGradient836" id="linearGradient893" x1="380.3443" y1="146.21852" x2="358.38477" y2="108.18349" gradientUnits="userSpaceOnUse"/> <linearGradient xlink:href="#linearGradient844" id="linearGradient906" x1="445.53543" y1="-70.004089" x2="429.15857" y2="-17.667871" gradientUnits="userSpaceOnUse"/> <linearGradient xlink:href="#linearGradient844" id="linearGradient924" x1="182.379" y1="-42.029812" x2="228.91739" y2="16.218777" gradientUnits="userSpaceOnUse"/> </defs> <metadata id="metadata5"> </metadata> <g id="layer1"> <g id="g1118" transform="translate(-40.988051,40.01983)"> <path id="path926" d="M 57.213423,89.181117 43.520622,91.006813 1.3013944,69.098459 84.152379,21.26442 Z" style="opacity:0.10899999;fill:#000000;stroke:none;stroke-width:0.26458332px;stroke-linecap:butt;stroke-linejoin:miter;stroke-opacity:1"/> <path id="path827" transform="scale(0.26458333)" d="M 358.38477,-58.529297 68.814453,108.6543 213.14648,193.25391 503.7793,25.720703 v -1.177734 l -0.89063,0.357422 z" style="opacity:1;fill:#a27151;fill-opacity:1;stroke:none;stroke-width:0.99999994px;stroke-linecap:butt;stroke-linejoin:miter;stroke-opacity:1"/> <path id="path848" transform="scale(0.26458333)" d="M 358.38477,-58.529297 V 109.5332 L 503.7793,25.720703 v -1.177734 l -0.89063,0.357422 z" style="opacity:1;fill:#6a4a35;fill-opacity:1;stroke:none;stroke-width:0.99999994px;stroke-linecap:butt;stroke-linejoin:miter;stroke-opacity:1"/> <path id="path853" transform="scale(0.26458333)" d="M 358.38477,-58.529297 334.22656,171.07031 425.71289,129.59766 413.48438,77.771484 358.38477,109.5332 Z" style="opacity:0.16799999;fill:#000000;stroke:none;stroke-width:0.99999994px;stroke-linecap:butt;stroke-linejoin:miter;stroke-opacity:1"/> <path id="rect817" d="m 18.207198,28.748077 37.673511,21.750812 c 0.310942,0.179522 0.561266,0.574372 0.561266,0.885313 v 37.673512 c 0,0.310941 -0.250324,0.416741 -0.561266,0.237219 L 18.207198,67.544121 C 17.896256,67.364599 17.645932,66.969749 17.645932,66.658808 V 28.985296 c 0,-0.310941 0.250324,-0.416741 0.561266,-0.237219 z" style="opacity:1;fill:url(#linearGradient838);fill-opacity:1;stroke:none;stroke-width:1.11199999;stroke-linecap:square;stroke-linejoin:miter;stroke-miterlimit:4;stroke-dasharray:none;stroke-opacity:1"/> <path transform="scale(0.26458333)" id="path820" d="m 502.88867,24.900391 c -0.33845,-0.03287 -0.7468,0.06978 -1.1875,0.324218 L 359.3125,107.43164 c -0.61969,0.35778 -1.16948,0.94337 -1.55664,1.58789 -0.31328,-0.001 -0.6726,0.0952 -1.0625,0.32031 l -142.38867,82.20899 c -1.17522,0.67851 -2.1211,2.17049 -2.1211,3.3457 v 142.38672 c 0,1.17521 0.94588,1.57695 2.1211,0.89844 L 356.69336,255.9707 c 0.61979,-0.35783 1.16947,-0.94323 1.55664,-1.58789 0.31327,0.001 0.67261,-0.0952 1.0625,-0.32031 l 142.38867,-82.20703 c 1.17521,-0.67851 2.1211,-2.17049 2.1211,-3.3457 V 26.121094 c 0,-0.734507 -0.36951,-1.165914 -0.9336,-1.220703 z" style="opacity:1;fill:url(#linearGradient846);fill-opacity:1;stroke:none;stroke-width:4.20283461;stroke-linecap:square;stroke-linejoin:miter;stroke-miterlimit:4;stroke-dasharray:none;stroke-opacity:1"/> <path id="rect858" transform="scale(0.26458333)" d="m 126.89648,142.1875 v 96.60391 l 3.27808,-2.09665 3.27807,5.8818 3.27808,-2.09664 3.27808,5.8818 3.27807,-2.09665 3.27808,5.8818 3.27807,-2.09664 3.27808,5.8818 v -96.60391 z" style="opacity:1;fill:#a89487;fill-opacity:1;stroke:none;stroke-width:4.20283461;stroke-linecap:square;stroke-linejoin:miter;stroke-miterlimit:4;stroke-dasharray:none;stroke-opacity:1"/> <path id="path928" transform="scale(0.26458333)" d="m 68.814453,108.6543 -2.060547,0.44336 c -0.0369,0.13589 -0.06055,0.28435 -0.06055,0.45312 v 47.22266 l 86.427734,49.89844 60.02344,-13.41797 z" style="opacity:0.128;fill:#000000;fill-opacity:1;stroke:none;stroke-width:0.99999994px;stroke-linecap:butt;stroke-linejoin:miter;stroke-opacity:1"/> <path id="path863" transform="scale(0.26458333)" d="M 6.5898438,108.6543 153.12109,193.25391 h 60.02539 L 68.814453,108.6543 Z" style="fill:url(#linearGradient874);fill-opacity:1;stroke:none;stroke-width:0.99999994px;stroke-linecap:butt;stroke-linejoin:miter;stroke-opacity:1"/> <path id="path933" transform="scale(0.26458333)" d="M 502.88867,24.900391 213.14648,193.25391 256.01172,233.85938 503.82227,90.785156 V 26.121094 c 0,-0.734507 -0.36951,-1.165914 -0.9336,-1.220703 z" style="opacity:0.11799999;fill:#000000;fill-opacity:1;stroke:none;stroke-width:0.99999994px;stroke-linecap:butt;stroke-linejoin:miter;stroke-opacity:1"/> <path id="path882" transform="scale(0.26458333)" d="m 503.60547,24.724609 -0.7168,0.175782 L 213.14648,193.25391 256.01172,218.00195 589.05273,25.720703 H 503.7793 Z" style="fill:url(#linearGradient893);fill-opacity:1;stroke:none;stroke-width:0.99999994px;stroke-linecap:butt;stroke-linejoin:miter;stroke-opacity:1"/> <path id="path895" transform="scale(0.26458333)" d="m 385.14062,-104.87305 -26.75585,46.343753 144.5039,83.429688 26.75977,-46.341797 z" style="fill:url(#linearGradient906);fill-opacity:1;stroke:none;stroke-width:0.99999994px;stroke-linecap:butt;stroke-linejoin:miter;stroke-opacity:1"/> <path id="path913" transform="scale(0.26458333)" d="M 321.52734,-122.36719 31.957031,44.816406 68.814453,108.6543 358.38477,-58.529297 Z" style="fill:url(#linearGradient924);fill-opacity:1;stroke:none;stroke-width:0.99999994px;stroke-linecap:butt;stroke-linejoin:miter;stroke-opacity:1"/> <g transform="matrix(0.69049626,-0.3986582,0,0.69049626,-25.861504,76.547416)" id="g1062"> <rect style="fill:#865d43;fill-opacity:1;stroke-width:0.26458299" x="122.91007" y="72.019829" id="barcode_bar1" width="0.26458299" height="8.995822"/> <rect style="fill:#865d43;fill-opacity:1;stroke-width:0.26458299" x="123.43924" y="72.019829" id="barcode_bar3" width="0.26458299" height="8.995822"/> <rect style="fill:#865d43;fill-opacity:1;stroke-width:0.26458299" x="124.23299" y="72.019829" id="barcode_bar5" width="0.52916598" height="7.93749"/> <rect style="fill:#865d43;fill-opacity:1;stroke-width:0.26458299" x="125.29132" y="72.019829" id="barcode_bar7" width="0.26458299" height="7.93749"/> <rect style="fill:#865d43;fill-opacity:1;stroke-width:0.26458299" x="126.08507" y="72.019829" id="barcode_bar9" width="0.52916598" height="7.93749"/> <rect style="fill:#865d43;fill-opacity:1;stroke-width:0.26458299" x="127.14339" y="72.019829" id="barcode_bar11" width="0.26458299" height="7.93749"/> <rect style="fill:#865d43;fill-opacity:1;stroke-width:0.26458299" x="127.93715" y="72.019829" id="barcode_bar13" width="0.52916598" height="7.93749"/> <rect style="fill:#865d43;fill-opacity:1;stroke-width:0.26458299" x="128.99548" y="72.019829" id="barcode_bar15" width="0.26458299" height="7.93749"/> <rect style="fill:#865d43;fill-opacity:1;stroke-width:0.26458299" x="129.78923" y="72.019829" id="barcode_bar17" width="0.52916598" height="7.93749"/> <rect style="fill:#865d43;fill-opacity:1;stroke-width:0.26458299" x="130.84756" y="72.019829" id="barcode_bar19" width="0.26458299" height="7.93749"/> <rect style="fill:#865d43;fill-opacity:1;stroke-width:0.26458299" x="131.37672" y="72.019829" id="barcode_bar21" width="0.26458299" height="8.995822"/> <rect style="fill:#865d43;fill-opacity:1;stroke-width:0.26458299" x="131.9059" y="72.019829" id="barcode_bar23" width="0.26458299" height="8.995822"/> <rect style="fill:#865d43;fill-opacity:1;stroke-width:0.26458299" x="132.43506" y="72.019829" id="barcode_bar25" width="0.52916598" height="7.93749"/> <rect style="fill:#865d43;fill-opacity:1;stroke-width:0.26458299" x="133.49339" y="72.019829" id="barcode_bar27" width="0.52916598" height="7.93749"/> <rect style="fill:#865d43;fill-opacity:1;stroke-width:0.26458299" x="134.28714" y="72.019829" id="barcode_bar29" width="0.52916598" height="7.93749"/> <rect style="fill:#865d43;fill-opacity:1;stroke-width:0.26458299" x="135.34547" y="72.019829" id="barcode_bar31" width="0.52916598" height="7.93749"/> <rect style="fill:#865d43;fill-opacity:1;stroke-width:0.26458299" x="136.13922" y="72.019829" id="barcode_bar33" width="0.52916598" height="7.93749"/> <rect style="fill:#865d43;fill-opacity:1;stroke-width:0.26458299" x="137.19756" y="72.019829" id="barcode_bar35" width="0.52916598" height="7.93749"/> <rect style="fill:#865d43;fill-opacity:1;stroke-width:0.26458299" x="137.9913" y="72.019829" id="barcode_bar37" width="0.26458299" height="7.93749"/> <rect style="fill:#865d43;fill-opacity:1;stroke-width:0.26458299" x="138.78505" y="72.019829" id="barcode_bar39" width="0.79374897" height="7.93749"/> <rect style="fill:#865d43;fill-opacity:1;stroke-width:0.26458299" x="139.84338" y="72.019829" id="barcode_bar41" width="0.26458299" height="8.995822"/> <rect style="fill:#865d43;fill-opacity:1;stroke-width:0.26458299" x="140.37254" y="72.019829" id="barcode_bar43" width="0.26458299" height="8.995822"/> <text x="131.64131" y="82.33857" style="font-size:2.38124704px;text-align:center;text-anchor:middle;fill:#865d43;fill-opacity:1;stroke-width:0.26458299" id="barcode_text">1111 1115</text> </g> <g transform="matrix(0.41236926,-0.23957683,0,0.58471118,82.984814,3.6489528)" style="fill:#6a4a35;fill-opacity:1" id="g1075"> <text style="font-style:normal;font-variant:normal;font-weight:bold;font-stretch:normal;font-size:10.58333302px;line-height:1.25;font-family:Bahnschrift;-inkscape-font-specification:'Bahnschrift, Bold';font-variant-ligatures:normal;font-variant-caps:normal;font-variant-numeric:normal;text-align:start;letter-spacing:0px;word-spacing:0.238125px;writing-mode:lr-tb;text-anchor:start;fill:#6a4a35;fill-opacity:1;stroke:none;stroke-width:0.26458332" x="76.005394" y="110.45595" id="text1066"><tspan id="tspan1064" x="76.005394" y="110.45595" style="fill:#6a4a35;fill-opacity:1;stroke-width:0.26458332">FRAGILE </tspan></text> <path style="color:#000000;font-style:normal;font-variant:normal;font-weight:normal;font-stretch:normal;font-size:medium;line-height:normal;font-family:sans-serif;font-variant-ligatures:normal;font-variant-position:normal;font-variant-caps:normal;font-variant-numeric:normal;font-variant-alternates:normal;font-feature-settings:normal;text-indent:0;text-align:start;text-decoration:none;text-decoration-line:none;text-decoration-style:solid;text-decoration-color:#000000;letter-spacing:normal;word-spacing:normal;text-transform:none;writing-mode:lr-tb;direction:ltr;text-orientation:mixed;dominant-baseline:auto;baseline-shift:baseline;text-anchor:start;white-space:normal;shape-padding:0;clip-rule:nonzero;display:inline;overflow:visible;visibility:visible;opacity:1;isolation:auto;mix-blend-mode:normal;color-interpolation:sRGB;color-interpolation-filters:linearRGB;solid-color:#000000;solid-opacity:1;vector-effect:none;fill:#6a4a35;fill-opacity:1;fill-rule:nonzero;stroke:none;stroke-width:1.11199999;stroke-linecap:square;stroke-linejoin:miter;stroke-miterlimit:4;stroke-dasharray:none;stroke-dashoffset:0;stroke-opacity:1;color-rendering:auto;image-rendering:auto;shape-rendering:auto;text-rendering:auto;enable-background:accumulate" d="m 75.056641,99.849609 c -0.609348,0 -1.117188,0.507841 -1.117188,1.117191 v 11.46484 c 0,0.60935 0.50784,1.11719 1.117188,1.11719 h 43.900389 c 0.60935,0 1.11719,-0.50784 1.11719,-1.11719 V 100.9668 c 0,-0.60935 -0.50784,-1.117191 -1.11719,-1.117191 z m 0,1.111331 h 43.900389 c 0.0125,0 0.004,-0.007 0.004,0.006 v 11.46484 c 0,0.0125 0.009,0.004 -0.004,0.004 H 75.056641 c -0.01253,0 -0.0059,0.009 -0.0059,-0.004 V 100.9668 c 0,-0.0125 -0.0067,-0.006 0.0059,-0.006 z" id="rect1068"/> </g> </g> </g> </svg>