<?xml version='1.0' encoding='utf-8'?>
<svg xmlns="http://www.w3.org/2000/svg" version="1.1" width="600px" height="976px" viewBox="0 0 600 976"> <g id="layer1"> <g> <g style="fill:rgb(0,0,0); fill-opacity:1.0; stroke-linejoin: miter"> <path d="M294.03622,661.7528Q296.88925,662.42114,301.7234,667.0299Q304.80176,670.07446,305.34662,673.2643Q306.03333,673.4706,306.8348,698.615Q307.1881,711.23083,306.6128,719.6575Q305.8078,732.9459,301.86893,737.39844Q298.57077,741.9818,288.53113,741.62537Q280.51965,742.26074,278.3897,732.59705Q275.77948,720.92395,277.27405,696.1504Q278.46442,679.01013,281.28876,673.5353Q282.31177,671.407,283.82553,670.2803Q284.8128,669.5095,286.95602,668.8872L293.7669,664.30554Q292.96674,661.65247,294.0328,661.7528"/> </g> <g style="fill:rgb(255,209,159); fill-opacity:1.0; stroke-linejoin: miter"> <path d="M274.3041,631.2777L297.99237,643.5111L299.86423,664.4037Q304.74097,675.13586,305.3111,680.9949Q305.57965,683.0515,305.63516,685.9562Q305.522,697.7213,305.6106,697.8933Q306.15265,706.9252,306.06445,707.0414Q306.56595,718.41174,296.0461,722.4369Q282.737,726.8849,278.56863,717.96375Q276.98065,714.1135,276.92957,707.1633Q276.89755,704.24524,277.07178,700.6615Q278.13937,683.9009,278.08566,682.771Q278.24707,677.34717,277.9764,671.9415Q277.5331,661.2545,274.36176,642.8207L274.3048,631.4176"/> </g> </g> <g> <g style="fill:rgb(0,0,0); fill-opacity:1.0; stroke-linejoin: miter"> <path d="M321.15012,660.90283Q318.2971,661.5711,313.46295,666.1799Q310.38458,669.2245,309.83972,672.4143Q309.153,672.6206,308.35153,697.76495Q307.99823,710.38086,308.57355,718.8075Q309.37854,732.09595,313.3174,736.54846Q316.61557,741.13184,326.6552,740.7754Q334.6667,741.4107,336.79663,731.7471Q339.40686,720.0739,337.9123,695.30035Q336.72192,678.16016,333.89758,672.6853Q332.87457,670.557,331.3608,669.4303Q330.37354,668.65955,328.23032,668.03723L321.41943,663.45557Q322.2196,660.8024,321.15353,660.90283"/> </g> <g style="fill:rgb(255,209,159); fill-opacity:1.0; stroke-linejoin: miter"> <path d="M340.88223,630.42773L317.19397,642.6611L315.3221,663.55365Q310.44537,674.2858,309.87524,680.1449Q309.6067,682.2015,309.55118,685.1062Q309.66434,696.87134,309.57574,697.04333Q309.0337,706.0752,309.1219,706.1914Q308.6204,717.56177,319.14023,721.5869Q332.44934,726.0349,336.6177,717.1137Q338.2057,713.26355,338.25677,706.3133Q338.2888,703.39526,338.11456,699.8115Q337.04697,683.05084,337.10068,681.92096Q336.93927,676.49713,337.20993,671.0915Q337.65323,660.4045,340.8246,641.9707L340.88153,630.5676"/> </g> </g> <g style="fill:rgb(125,80,30); fill-opacity:1.0; stroke-linejoin: miter"> <path d="M311.48572,49.183266Q286.6419,49.46236,276.2637,76.56199Q266.66418,98.526596,264.02045,169.34949L315.29846,205.01096Q340.87506,204.05814,348.32336,188.72153Q357.50928,170.93788,356.7874,128.30283Q356.1218,89.085434,343.98224,69.413475Q333.11472,49.333046,311.52115,49.18328"/> </g> <g style="fill:rgb(0,0,0); fill-opacity:1.0; stroke-linejoin: miter"> <path d="M248.83023,333.69882Q231.0967,374.8531,235.53375,431.22272Q238.41754,485.7018,269.1034,647.33484L348.27393,648.3589L377.94135,467.7472Q382.07874,409.772,380.3501,387.61063Q378.98157,363.47186,369.4431,336.69504L249.0867,333.7052"/> </g> <g style="fill:rgb(0,0,0); fill-opacity:1.0; stroke-linejoin: miter"> <path d="M341.50598,150.1215L295.20807,152.14511Q282.70337,160.6062,275.35236,163.23212Q271.43234,164.66832,267.12796,165.28278Q250.86441,166.24924,248.4751,166.88235Q242.13994,168.3772,238.49338,171.96684Q234.60208,175.8361,231.46158,182.71597L217.89285,216.96146L196.77074,261.95956Q191.40125,275.51202,190.40695,293.21658Q195.03844,301.91797,204.99234,308.1482Q210.31201,312.0401,242.99626,328.5473L229.28867,385.34717L311.1816,396.29984L386.54193,388.72067L374.05344,320.6076Q399.5312,311.62872,407.982,296.02423Q406.764,228.00085,401.86658,201.01486Q397.5626,175.23532,387.17834,166.90529Q381.90668,162.40358,373.98227,161.01544Q369.92847,160.15228,354.7154,160.6728Q351.7154,160.52734,348.8739,159.49054Q344.0347,157.71858,341.6704,150.58209"/> </g> <g style="fill:rgb(255,209,159); fill-opacity:1.0; stroke-linejoin: miter"> <path d="M315.4087,70.064644Q302.34485,70.73011,296.04474,78.43696Q288.9804,87.07332,285.86362,105.407Q284.10162,117.08766,286.62375,125.03821Q287.7678,128.79395,290.02148,132.61934Q292.10614,136.27466,297.32886,142.60297L297.5532,143.59059Q299.03006,149.3715,296.41858,156.76482L298.8093,181.29015L341.94196,177.29816L341.3767,156.47195Q337.84686,152.32214,336.80063,149.16156Q335.68732,146.1687,335.2882,139.1944Q349.80563,118.15903,344.74918,99.88872Q341.52036,87.169785,332.73642,77.966934Q325.05737,70.00232,315.49017,70.06478"/> </g> <g style="fill:rgb(255,255,255); fill-opacity:1.0; stroke-linejoin: miter"> <path d="M342.1708,175.61438L298.86703,180.40163Q299.01962,208.99109,302.98508,224.95511Q306.31396,239.4688,318.3586,258.94745Q334.3281,233.47063,338.15216,218.95493Q342.55978,204.7135,342.17062,175.70676"/> </g> <g style="fill:rgb(250,84,34); fill-opacity:0.105882354; stroke-linejoin: miter"> <path d="M334.18597,141.20123Q327.52975,148.34827,324.05362,150.85182Q319.64417,154.12422,316.02158,154.36227Q308.97516,154.90031,299.19263,143.94759L319.04608,176.43137L334.1698,141.24675"/> </g> <g style="fill:rgb(255,209,159); fill-opacity:1.0; stroke-linejoin: miter"> <path d="M372.81964,287.2876Q368.94168,283.8266,360.785,284.1535Q347.16367,284.77625,336.55594,288.01498Q333.58783,289.01147,331.7802,290.30386Q330.9679,290.8782,330.30118,291.50723L327.70035,294.10577Q326.9466,294.76492,326.25345,295.18036Q325.5618,295.59784,324.86273,295.89984Q320.44247,297.6455,319.97406,297.94656Q318.50372,298.6756,317.50623,299.54495Q314.59717,302.01184,315.485,306.45154Q318.51923,316.98444,328.9273,324.9709Q337.83057,331.27835,346.38312,328.3884Q358.79156,324.28012,375.6472,301.49628L372.8225,287.30176"/> </g> <g style="fill:rgb(255,0,0); fill-opacity:1.0; stroke-linejoin: miter"> <path d="M229.30893,202.1274L243.63039,285.61517L301.66437,299.85876L292.61023,211.47461L229.38802,202.1389"/> </g> <g style="fill:rgb(255,217,0); fill-opacity:1.0; stroke-linejoin: miter"> <path d="M232.7013,203.95726L247.02734,287.44617L305.00803,301.67667L295.9735,213.30017L232.89702,203.986"/> </g> <g style="fill:rgb(255,209,159); fill-opacity:1.0; stroke-linejoin: miter"> <path d="M321.4738,291.80792Q321.23688,287.7331,317.48938,286.79727Q316.3573,286.48822,314.45975,286.43567Q306.57117,286.7304,306.01593,286.52338Q304.74796,286.5216,298.2479,285.1967Q296.79413,284.98563,295.75922,285.02292Q293.09534,285.0113,289.63037,287.06204Q286.76492,288.6796,280.57608,294.03842L271.66653,293.01724L263.26624,312.9439L278.0801,315.74673Q288.64795,322.80646,293.74744,324.02725Q298.7982,325.4246,302.81805,323.9281Q308.94238,321.7419,314.92493,311.63028Q321.4748,299.83286,321.4768,291.85526"/> </g> </g> </svg>