<svg width="826" height="680" viewBox="0 0 826 680" fill="none" xmlns="http://www.w3.org/2000/svg">
<rect width="826" height="680" fill="#E5E5E5"/>
<path d="M670.821 452.883C717.202 452.883 754.8 415.285 754.8 368.904C754.8 322.524 717.202 284.925 670.821 284.925C624.441 284.925 586.842 322.524 586.842 368.904C586.842 415.285 624.441 452.883 670.821 452.883Z" fill="#FF6584"/>
<path d="M671.802 457.096C671.802 516.265 607.049 494.593 527.171 494.593C447.294 494.593 382.541 516.265 382.541 457.096C382.541 397.928 447.294 280.326 527.171 280.326C607.049 280.326 671.802 397.928 671.802 457.096Z" fill="#6C63FF"/>
<path d="M816.033 506.714C799.28 503.876 783.17 501.438 767.701 499.402L773.816 487.545C771.754 486.829 762.694 493.619 762.694 493.619L770.72 459.202C760.348 460.452 755.075 495.594 755.075 495.594L743.488 483.713L749.098 497.071C708.405 492.151 667.462 489.575 626.473 489.353L631.708 479.205C629.645 478.489 620.586 485.279 620.586 485.279L628.611 450.862C618.24 452.113 612.967 487.255 612.967 487.255L601.38 475.373L607.322 489.521C593.871 489.79 581.595 490.365 570.465 491.126L572.311 487.545C571.003 487.091 566.882 489.655 564.041 491.593C563.222 491.657 562.422 491.723 561.616 491.789L569.215 459.202C560.755 460.222 555.688 483.792 554.108 492.444C552.995 492.548 551.891 492.653 550.807 492.76L542.065 483.796C549.388 472.433 560.108 463.465 560.108 463.465C546.374 467.55 539.169 474.395 535.405 480.776C535.068 448.157 540.492 415.735 551.427 385.001C551.427 385.001 523.038 446.777 526.66 488.244L527.048 494.833C488.326 490.937 454.279 489.417 424.969 489.353L430.203 479.205C428.141 478.489 419.081 485.279 419.081 485.279L427.107 450.862C416.736 452.113 411.463 487.255 411.463 487.255L399.876 475.373L405.817 489.521C382.253 489.91 358.725 491.509 335.325 494.31C340.619 478.501 358.604 463.465 358.604 463.465C344.869 467.55 337.665 474.395 333.9 480.777C333.564 448.157 338.988 415.735 349.922 385.001C349.922 385.001 321.534 446.777 325.156 488.244L325.589 495.607C301.522 499.053 289.422 502.639 289.422 502.639L614.528 506.714C608.858 505.753 603.264 504.841 597.746 503.977L816.033 506.714ZM542.037 483.839L545.992 493.257C542.805 493.598 539.741 493.95 536.83 494.309C538.13 490.619 539.879 487.103 542.037 483.839V483.839Z" fill="#3F3D56"/>
<path d="M717.828 498.053C717.653 497.766 713.512 490.852 712.076 476.495C710.76 463.323 711.606 441.12 723.121 410.15C744.935 351.478 718.094 304.139 717.82 303.667L719.144 302.899C719.213 303.018 726.139 315.088 730.231 334.307C735.637 359.788 733.668 386.282 724.556 410.683C702.779 469.255 718.969 496.982 719.135 497.256L717.828 498.053Z" fill="#3F3D56"/>
<path d="M709.299 300.222C714.793 300.222 719.247 295.768 719.247 290.274C719.247 284.78 714.793 280.326 709.299 280.326C703.805 280.326 699.351 284.78 699.351 290.274C699.351 295.768 703.805 300.222 709.299 300.222Z" fill="#6C63FF"/>
<path d="M740.674 336.954C746.168 336.954 750.622 332.5 750.622 327.005C750.622 321.511 746.168 317.057 740.674 317.057C735.179 317.057 730.726 321.511 730.726 327.005C730.726 332.5 735.179 336.954 740.674 336.954Z" fill="#3F3D56"/>
<path d="M719.247 361.441C724.741 361.441 729.195 356.987 729.195 351.493C729.195 345.999 724.741 341.545 719.247 341.545C713.753 341.545 709.299 345.999 709.299 351.493C709.299 356.987 713.753 361.441 719.247 361.441Z" fill="#6C63FF"/>
<path d="M745.265 382.103C750.759 382.103 755.213 377.649 755.213 372.155C755.213 366.66 750.759 362.207 745.265 362.207C739.771 362.207 735.317 366.66 735.317 372.155C735.317 377.649 739.771 382.103 745.265 382.103Z" fill="#6C63FF"/>
<path d="M711.594 414.243C717.089 414.243 721.543 409.789 721.543 404.295C721.543 398.801 717.089 394.347 711.594 394.347C706.1 394.347 701.646 398.801 701.646 404.295C701.646 409.789 706.1 414.243 711.594 414.243Z" fill="#3F3D56"/>
<path d="M723.838 498.419C723.838 498.419 713.89 473.932 743.735 455.566L723.838 498.419Z" fill="#3F3D56"/>
<path d="M711.604 497.975C711.604 497.975 707.076 471.935 672.034 472.158L711.604 497.975Z" fill="#3F3D56"/>
<path d="M550.727 73.354C539.815 54.9158 518.226 54.0565 518.226 54.0565C518.226 54.0565 497.189 51.3663 483.694 79.448C471.115 105.622 453.755 130.894 480.899 137.022L485.802 121.761L488.838 138.158C492.703 138.436 496.58 138.502 500.452 138.356C529.521 137.418 557.205 138.631 556.313 128.2C555.128 114.333 561.227 91.0953 550.727 73.354Z" fill="#2F2E41"/>
<path d="M472.074 222.167L469.778 263.49L537.12 270.378L539.415 227.524L516.458 212.985L472.074 222.167Z" fill="#A0616A"/>
<path d="M653.054 312.848C651.034 293.327 570.861 284.465 551.594 282.615L544.389 278.413L542.094 253.925C542.094 253.925 470.926 247.803 465.569 247.038C460.213 246.273 455.621 256.221 455.621 258.516C455.621 260.176 454.62 272.024 450.6 279.047C441.917 286.023 415.446 307.975 415.446 316.292C415.446 326.24 436.49 451.357 436.49 451.357L438.786 477.375L460.213 481.201L458.682 400.086C458.682 400.086 466.335 353.406 455.621 340.397V335.04C455.621 335.04 487.044 326.854 498.119 317.94C501.328 317.251 510.345 315.552 515.326 317.029C516.009 317.431 516.796 317.844 517.672 318.265C517.784 318.366 517.89 318.473 517.988 318.588C517.988 318.588 518.02 318.54 518.075 318.455C532.401 325.161 569.152 333.619 584.182 331.214C595.774 329.445 607.625 331.599 617.852 337.336C609.435 348.05 615.557 378.659 615.557 378.659L616.322 444.47L627.035 457.479H641.575V421.513C641.575 421.513 655.349 335.04 653.054 312.848Z" fill="#2F2E41"/>
<path d="M511.484 123.834C525.431 123.834 536.737 112.528 536.737 98.581C536.737 84.6342 525.431 73.328 511.484 73.328C497.537 73.328 486.231 84.6342 486.231 98.581C486.231 112.528 497.537 123.834 511.484 123.834Z" fill="#A0616A"/>
<path d="M496.179 114.651C496.179 114.651 500.005 131.486 494.649 133.017C490.411 134.421 486.312 136.214 482.405 138.374L476.283 158.27V178.166L550.511 186.584L552.807 179.697V169.748L544.389 154.444L540.563 150.617C540.563 150.617 523.728 132.252 527.554 114.651H496.179Z" fill="#A0616A"/>
<path d="M562.372 175.488C562.372 175.488 564.668 202.271 562.372 214.515C560.077 226.759 560.842 245.125 560.842 245.125L544.007 242.064V200.741L547.833 178.549L562.372 175.488Z" fill="#A0616A"/>
<path d="M520.868 69.7598C529.489 69.7598 536.478 62.771 536.478 54.1498C536.478 45.5287 529.489 38.5399 520.868 38.5399C512.247 38.5399 505.258 45.5287 505.258 54.1498C505.258 62.771 512.247 69.7598 520.868 69.7598Z" fill="#2F2E41"/>
<path d="M503.615 50.042C503.615 46.1866 505.042 42.4678 507.621 39.6019C510.2 36.736 513.748 34.9257 517.582 34.5197C515.405 34.2879 513.203 34.5166 511.12 35.191C509.037 35.8654 507.12 36.9705 505.492 38.4343C503.864 39.8982 502.562 41.6881 501.671 43.6879C500.779 45.6877 500.319 47.8526 500.319 50.042C500.319 52.2313 500.779 54.3962 501.671 56.396C502.562 58.3958 503.864 60.1858 505.492 61.6496C507.12 63.1135 509.037 64.2185 511.12 64.8929C513.203 65.5673 515.405 65.796 517.582 65.5642C513.748 65.1582 510.2 63.3479 507.621 60.482C505.042 57.6161 503.615 53.8973 503.615 50.042V50.042Z" fill="#2F2E41"/>
<path d="M545.903 71.577L524.574 60.404L495.12 64.975L489.026 91.89L504.195 91.306L508.433 81.418V91.143L515.433 90.874L519.496 75.131L522.035 91.89L546.918 91.382L545.903 71.577Z" fill="#2F2E41"/>
<path d="M555.359 260H462V353.359H555.359V260Z" fill="#F2F2F2"/>
<path d="M452.943 162.479L439.169 219.106C439.169 219.106 433.812 231.35 446.056 239.003C458.3 246.655 485.848 256.603 485.848 256.603C485.848 256.603 510.336 290.274 513.397 276.5C516.458 262.725 495.031 245.125 495.031 245.125L457.534 221.402L472.074 181.61L452.943 162.479Z" fill="#A0616A"/>
<path d="M552.424 233.646C552.424 233.646 563.903 232.116 563.138 245.125C562.372 258.134 547.068 259.664 547.068 259.664C547.068 259.664 540.18 288.743 530.232 283.387C520.284 278.03 535.589 248.951 535.589 248.951L548.598 239.003L552.424 233.646Z" fill="#A0616A"/>
<path d="M478.579 157.505L490.822 132.252L466.335 140.669C466.335 140.669 452.56 147.556 451.795 163.626C451.03 179.697 469.396 188.114 469.396 188.114C469.396 188.114 472.457 211.071 470.926 214.132C469.396 217.193 470.926 229.437 470.926 229.437C470.926 229.437 500.388 221.402 514.928 231.35C529.467 241.298 541.328 235.559 541.328 235.559C541.328 235.559 540.563 216.428 546.685 213.367C552.807 210.306 558.164 195.767 552.807 186.584C552.807 186.584 565.051 188.114 564.286 176.636C563.52 165.157 557.398 155.209 547.45 150.617C537.502 146.026 536.402 145.292 536.402 145.292L550.511 171.279V178.166C550.511 178.166 525.535 162.224 500.824 160.895C492.762 160.526 484.845 163.132 478.579 168.218L478.579 168.218V157.505Z" fill="#2F2E41"/>
<path d="M459.022 451.677C459.022 451.677 469.881 456.787 473.075 458.704C476.269 460.62 489.044 456.787 486.489 468.285C483.934 479.783 473.075 490.641 473.075 490.641C473.075 490.641 467.965 496.39 467.965 500.223C467.965 504.055 455.19 533.438 439.86 532.16C424.529 530.883 427.084 515.553 427.084 515.553L430.278 498.945C430.278 498.945 436.666 470.84 437.943 471.479C439.221 472.117 442.415 476.589 442.415 476.589C442.415 476.589 458.384 470.201 459.022 451.677Z" fill="#D0CDE1"/>
<path d="M618.278 432.546C618.278 432.546 607.419 437.656 604.225 439.573C601.031 441.489 588.256 437.656 590.811 449.154C593.366 460.652 604.225 471.51 604.225 471.51C604.225 471.51 609.335 477.259 609.335 481.092C609.335 484.924 622.11 514.307 637.44 513.029C652.77 511.752 650.215 496.422 650.215 496.422L647.022 479.814C647.022 479.814 640.634 451.709 639.357 452.348C638.079 452.986 634.885 457.458 634.885 457.458C634.885 457.458 618.916 451.07 618.278 432.546Z" fill="#D0CDE1"/>
</svg>
