<svg width="1027" height="755" viewBox="0 0 1027 755" fill="none" xmlns="http://www.w3.org/2000/svg">
<g id="undraw_adjustments_p22m 1">
<path id="Vector" d="M411.656 755C505.907 755 582.313 740.782 582.313 723.244C582.313 705.705 505.907 691.488 411.656 691.488C317.406 691.488 241 705.705 241 723.244C241 740.782 317.406 755 411.656 755Z" fill="#F2F2F2"/>
<path id="Vector_2" d="M963.714 531.04C963.714 551.549 951.522 558.709 936.483 558.709C921.443 558.709 909.251 551.549 909.251 531.04C909.251 510.531 936.483 484.441 936.483 484.441C936.483 484.441 963.714 510.531 963.714 531.04Z" fill="#6C63FF"/>
<path id="Vector_3" d="M935.491 555.572L935.769 538.408L947.376 517.174L935.813 535.716L935.939 527.998L943.938 512.636L935.972 525.956L936.197 512.076L944.763 499.845L936.233 509.893L936.374 484.441L935.488 518.135L935.561 516.745L926.852 503.414L935.421 519.413L934.61 534.915L934.586 534.504L924.546 520.475L934.555 535.957L934.454 537.896L934.436 537.925L934.444 538.084L932.385 577.414H935.136L935.466 557.099L945.451 541.655L935.491 555.572Z" fill="#3F3D56"/>
<path id="Vector_4" d="M853.5 188.25H189.5V194.25H853.5V188.25Z" fill="#3F3D56"/>
<path id="Vector_5" d="M853.5 242.25H189.5V248.25H853.5V242.25Z" fill="#3F3D56"/>
<path id="Vector_6" d="M853.5 296.25H189.5V302.25H853.5V296.25Z" fill="#3F3D56"/>
<g id="button1">
<path id="Vector_7" d="M318.5 166.25H302.5V216.25H318.5V166.25Z" fill="#6C63FF"/>
</g>
<g id="button2">
<path id="Vector_8" d="M500.5 220.25H484.5V270.25H500.5V220.25Z" fill="#6C63FF"/>
</g>
<g id="button3">
<path id="Vector_9" d="M812.5 274.25H796.5V324.25H812.5V274.25Z" fill="#6C63FF"/>
</g>
<path id="Vector_10" d="M425.5 420.25H189.5V426.25H425.5V420.25Z" fill="#3F3D56"/>
<path id="Vector_11" d="M307.5 442.25H189.5V448.25H307.5V442.25Z" fill="#3F3D56"/>
<path id="Vector_12" d="M225.5 500.25H188.5V463.25H224.5V465.25H190.5V498.25H223.5V479.439H225.5V500.25Z" fill="#3F3D56"/>
<path id="Vector_13" d="M853.5 420.25H617.5V426.25H853.5V420.25Z" fill="#3F3D56"/>
<path id="Vector_14" d="M693.5 442.25H617.5V448.25H693.5V442.25Z" fill="#3F3D56"/>
<path id="Vector_15" d="M853.5 442.25H777.5V448.25H853.5V442.25Z" fill="#3F3D56"/>
<path id="Vector_16" d="M653.5 500.25H616.5V463.25H653.5V500.25ZM618.5 498.25H651.5V465.25H618.5V498.25Z" fill="#3F3D56"/>
<path id="Vector_17" d="M378.024 333.278H351.768V320.418H373.737L378.56 323.097L378.024 333.278Z" fill="#575A89"/>
<path id="Vector_18" d="M332.478 687.469L333.549 706.76L349.625 703.545L346.945 684.254L332.478 687.469Z" fill="#FFB9B9"/>
<path id="Vector_19" d="M408.567 677.288C408.567 677.288 409.103 693.364 407.495 697.65C405.888 701.937 411.782 704.081 411.782 704.081H424.642L432.144 705.152V697.115C432.144 697.115 423.571 683.718 423.571 676.217C423.571 668.715 408.567 677.288 408.567 677.288Z" fill="#FFB9B9"/>
<path id="Vector_20" d="M335.157 703.545C335.157 703.545 345.874 698.481 349.625 701.549C353.375 704.616 367.307 730.872 361.949 732.48C361.949 732.48 358.198 738.91 345.338 734.623C332.478 730.337 332.478 725.514 332.478 725.514C332.478 725.514 328.727 722.299 328.727 721.227C328.727 720.156 330.334 710.51 330.334 710.51C330.334 710.51 331.523 702.441 333.34 702.993L335.157 703.545Z" fill="#2F2E41"/>
<path id="Vector_21" d="M409.639 695.507C409.639 695.507 408.031 693.899 406.96 695.507C405.888 697.115 399.994 717.476 405.352 718.548C410.711 719.62 418.748 723.371 419.82 722.299C420.715 721.161 421.438 719.897 421.963 718.548C421.963 718.548 430.537 722.299 433.216 725.514C435.895 728.729 468.045 735.695 466.974 725.514C465.902 715.333 449.827 706.76 449.827 706.76L432.144 694.971C432.144 694.971 425.178 695.507 423.571 698.722C421.963 701.937 410.71 701.401 409.639 695.507Z" fill="#2F2E41"/>
<path id="Vector_22" d="M252.637 488.136C252.637 488.136 246.743 495.638 247.815 496.174C248.886 496.71 272.463 502.068 285.324 498.853C298.184 495.638 324.976 496.174 326.583 492.423C328.191 488.672 348.017 442.054 348.017 442.054L341.587 406.689L334.621 397.579L318.546 383.647L286.395 443.662L252.637 488.136Z" fill="#575A89"/>
<path id="Vector_23" opacity="0.1" d="M252.637 488.136C252.637 488.136 246.743 495.638 247.815 496.174C248.886 496.71 272.463 502.068 285.324 498.853C298.184 495.638 324.976 496.174 326.583 492.423C328.191 488.672 348.017 442.054 348.017 442.054L341.587 406.689L334.621 397.579L318.546 383.647L286.395 443.662L252.637 488.136Z" fill="black"/>
<path id="Vector_24" d="M320.689 475.276C320.689 475.276 313.187 502.068 320.689 539.041C328.191 576.014 321.225 584.052 322.833 585.66C324.44 587.267 324.976 586.731 324.976 588.339C324.976 589.946 326.583 597.448 324.976 600.127C323.368 602.806 323.368 688.005 328.191 690.149C333.014 692.292 346.945 697.65 349.625 690.149C352.304 682.647 350.16 628.527 351.232 625.848C352.304 623.168 352.304 616.738 352.304 615.131C352.304 613.523 355.519 595.305 356.055 590.482C356.591 585.66 358.198 576.014 358.198 576.014C358.198 576.014 357.126 537.97 360.341 526.717C363.556 515.464 364.628 514.393 364.628 514.393L390.348 581.373C390.348 581.373 388.205 588.339 390.348 590.482C392.492 592.625 389.813 592.09 391.956 595.841C394.099 599.591 396.243 600.663 396.243 602.806C396.243 604.95 394.099 604.95 395.171 606.557C396.243 608.165 397.85 614.059 397.85 614.059L395.171 620.489C395.171 620.489 396.779 633.885 398.922 641.923C401.065 649.961 401.065 682.647 403.744 683.183C406.424 683.718 427.321 689.613 427.321 677.288C427.321 664.964 425.714 611.38 425.714 611.38C425.714 611.38 422.499 603.342 422.499 601.199C422.499 599.056 421.963 597.984 423.035 596.912C424.106 595.84 425.178 593.697 423.571 592.09C421.963 590.482 422.499 588.339 422.499 586.195C422.406 583.311 422.048 580.441 421.427 577.622C420.891 575.479 410.71 508.498 410.71 508.498C410.71 508.498 412.854 500.461 410.71 499.925C408.567 499.389 408.567 495.102 408.567 492.959C408.567 490.816 413.926 464.024 407.495 464.024C401.065 464.024 320.689 475.276 320.689 475.276Z" fill="#2F2E41"/>
<path id="Vector_25" d="M249.958 443.126L242.456 446.877C242.456 446.877 215.664 461.344 227.453 469.382C239.241 477.42 251.03 458.129 251.03 458.129L262.282 449.556L249.958 443.126Z" fill="#FFB9B9"/>
<path id="Vector_26" d="M354.447 296.305C354.447 296.305 352.304 320.954 341.051 326.312C329.799 331.671 337.3 371.859 337.3 371.859L352.84 386.862L380.168 378.825L383.383 360.606L386.062 341.852L379.632 332.207C379.632 332.207 371.594 330.063 374.809 308.63C378.024 287.196 354.447 296.305 354.447 296.305Z" fill="#FFB9B9"/>
<path id="Vector_27" d="M338.372 334.886C338.372 334.886 350.696 375.61 359.27 375.61C367.843 375.61 372.666 365.965 373.737 354.176C374.809 342.388 381.775 329.527 381.775 329.527L398.386 344.531C398.386 344.531 411.782 462.952 410.71 466.167C409.639 469.382 367.843 473.133 351.232 477.956C334.621 482.778 318.01 479.027 318.01 476.348C318.01 473.962 326.511 453.299 320.042 438.208C317.68 432.832 316.082 427.152 315.296 421.333C314.295 413.388 313.365 403.775 314.259 400.794C315.867 395.436 324.44 338.637 324.44 338.637L338.372 334.886Z" fill="#6C63FF"/>
<path id="Vector_28" d="M347.445 320.101C347.445 320.101 337.836 325.241 333.549 327.384C329.263 329.527 303.006 335.958 302.471 339.173C301.935 342.388 306.221 387.398 304.078 392.221C301.935 397.043 280.501 439.911 280.501 439.911L279.429 449.02C279.429 449.02 244.064 491.351 248.351 496.174C252.637 500.997 268.713 481.17 268.713 481.17C268.713 481.17 304.614 423.835 305.686 421.692C306.757 419.549 328.727 379.896 331.942 378.825C335.157 377.753 342.659 332.742 343.73 330.599C344.802 328.456 349.015 319.248 347.445 320.101Z" fill="#575A89"/>
<path id="Vector_29" d="M305.15 338.637H301.935C301.935 338.637 290.146 383.647 286.931 389.542C283.716 395.436 283.18 405.081 282.644 406.689C282.109 408.296 279.965 407.76 279.429 411.511C278.894 415.262 273.535 420.085 269.248 422.228C264.962 424.371 245.671 442.59 246.207 443.126C246.743 443.662 252.637 462.416 256.388 462.416C260.139 462.416 275.143 444.197 276.75 444.197C278.358 444.197 285.324 437.767 286.395 437.232C287.467 436.696 314.795 386.327 313.723 374.002C312.652 361.678 305.15 338.637 305.15 338.637Z" fill="#575A89"/>
<path id="Vector_30" d="M438.849 477.459L445.449 482.634C445.449 482.634 468.807 502.167 455.65 507.685C442.492 513.203 434.799 491.945 434.799 491.945L425.488 481.294L438.849 477.459Z" fill="#FFB9B9"/>
<path id="Vector_31" d="M374.154 320.736C374.154 320.736 381.239 324.169 384.454 326.848C387.669 329.527 412.318 336.493 412.318 338.637C412.318 340.78 409.639 374.002 409.639 374.002L413.39 432.945C413.39 432.945 418.748 499.389 419.82 500.997C420.891 502.604 422.499 511.178 419.82 511.178C417.141 511.178 403.745 496.174 404.28 488.672C404.816 481.171 408.567 464.024 404.816 459.737C401.065 455.45 383.383 383.647 383.383 379.361C383.383 375.074 375.881 332.207 376.417 331.135C376.952 330.063 374.154 320.736 374.154 320.736Z" fill="#575A89"/>
<path id="Vector_32" d="M404.28 338.101L412.318 338.637L432.144 419.549C432.144 419.549 433.752 429.73 434.287 430.801C434.823 431.873 442.861 478.491 439.646 480.099C436.431 481.706 425.714 487.601 425.178 483.85C424.642 480.099 419.284 459.201 413.926 454.378C408.567 449.556 403.209 366.5 403.209 366.5L404.28 338.101Z" fill="#575A89"/>
<path id="Vector_33" d="M372.13 310.773C384.263 310.773 394.099 300.937 394.099 288.804C394.099 276.67 384.263 266.834 372.13 266.834C359.996 266.834 350.16 276.67 350.16 288.804C350.16 300.937 359.996 310.773 372.13 310.773Z" fill="#FFB9B9"/>
<path id="Vector_34" d="M356.798 290.408C358.196 289.69 360.036 290.366 361.326 291.929C362.008 288.662 363.444 285.599 365.519 282.985C367.593 280.371 370.25 278.277 373.276 276.87C376.302 275.463 379.615 274.782 382.951 274.881C386.287 274.98 389.554 275.856 392.492 277.44V275.207C392.492 270.286 390.537 265.567 387.057 262.087C383.578 258.608 378.859 256.653 373.938 256.653H369.478C364.901 256.653 360.368 257.555 356.139 259.306C351.91 261.058 348.067 263.626 344.83 266.862C341.594 270.099 339.026 273.942 337.274 278.171C335.523 282.4 334.621 286.933 334.621 291.51V297.731C334.62 303.505 336.219 309.166 339.24 314.086C342.261 319.006 346.586 322.993 351.735 325.605L371.799 314.983C368.893 313.345 366.409 311.053 364.544 308.287C362.68 305.521 361.486 302.358 361.058 299.05C359.36 299.792 357.087 298.592 355.904 296.289C354.687 293.92 355.087 291.287 356.798 290.408Z" fill="#2F2E41"/>
<path id="Vector_35" d="M195.583 475.174L206.5 487.5L230.364 464.108" stroke="#57B894" stroke-width="4" stroke-miterlimit="10"/>
</g>
</svg>
