<svg width="1027" height="500" viewBox="0 0 1027 734" fill="none" xmlns="http://www.w3.org/2000/svg">
<g clip-path="url(#clip0)" filter="url(#filter0_d)">
<path opacity="0.1" d="M165.24 685.948C214.67 685.948 254.74 679.183 254.74 670.839C254.74 662.495 214.67 655.731 165.24 655.731C115.811 655.731 75.7401 662.495 75.7401 670.839C75.7401 679.183 115.811 685.948 165.24 685.948Z" fill="black"/>
<path opacity="0.1" d="M491.24 722.948C540.67 722.948 580.74 716.183 580.74 707.839C580.74 699.495 540.67 692.731 491.24 692.731C441.811 692.731 401.74 699.495 401.74 707.839C401.74 716.183 441.811 722.948 491.24 722.948Z" fill="black"/>
<path d="M78.6975 380.331C85.1717 388.966 92.1563 398.848 99.0496 409.618L100.034 359.942L100.577 360.289C93.2242 354.91 85.1499 350.594 76.5925 347.468L77.1355 347.77L78.6975 380.331Z" fill="#E6E6E6"/>
<path d="M76.0464 347.277C67.1683 344.249 58.554 343.245 50.68 344.649C50.2704 344.722 49.8677 344.806 49.4659 344.892C51.4666 347.038 63.1257 359.714 77.5591 378.819L76.0464 347.277Z" fill="#E6E6E6"/>
<path d="M127.995 463.914C129.057 466.449 130.066 468.966 131.024 471.465L149.244 417.666L149.769 418.166C147.617 414.119 145.336 410.184 142.926 406.362L128.244 464.133L127.995 463.914Z" fill="#E6E6E6"/>
<path d="M117.356 441.227L126.878 384.822L127.418 385.254C119.656 376.057 110.831 367.812 101.129 360.69L100.126 411.313C106.541 421.436 112.284 431.407 117.356 441.227Z" fill="#E6E6E6"/>
<path d="M20.5946 401.315L20.3719 400.626C21.1968 409.159 22.8817 417.586 25.4008 425.78L112.955 434.811C108.384 426.382 103.666 418.474 99.0853 411.267L20.5946 401.315Z" fill="#E6E6E6"/>
<path d="M25.8385 427.156L25.6075 426.468C26.4932 429.356 27.4862 432.276 28.5862 435.229L28.3503 434.542L116.963 442.418C115.893 440.324 114.81 438.258 113.716 436.22L25.8385 427.156Z" fill="#E6E6E6"/>
<path d="M127.368 462.447L141.928 405.157L142.461 405.627C138.068 398.717 133.213 392.112 127.93 385.856L118.28 443.024C121.625 449.591 124.654 456.065 127.368 462.447Z" fill="#E6E6E6"/>
<path d="M131.074 474.343L44.8417 466.039C49.5305 472.355 54.6372 478.349 60.1275 483.982L59.9137 483.219L138.737 499.435C136.687 490.925 134.128 482.546 131.074 474.343V474.343Z" fill="#E6E6E6"/>
<path d="M48.7547 345.437L48.9578 345.001C37.1037 347.692 28.734 355.758 24.1288 367.431L76.8788 379.351C61.2577 358.685 48.932 345.624 48.7547 345.437Z" fill="#E6E6E6"/>
<path d="M132.621 475.735C135.328 483.151 137.63 490.709 139.515 498.376L160.05 446.874L160.551 447.377C159.251 440.21 157.048 433.237 153.995 426.625C152.784 424.032 151.516 421.478 150.191 418.964L131.753 473.405C132.044 474.182 132.34 474.961 132.621 475.735Z" fill="#E6E6E6"/>
<path d="M98.168 409.831C91.3455 399.189 84.4399 389.426 78.0397 380.893L24.0794 368.7L23.8965 368.019C20.5279 376.89 19.2963 387.788 20.3165 399.96L98.168 409.831Z" fill="#E6E6E6"/>
<path d="M43.7946 464.604L130.519 472.956L130.537 472.904C126.774 462.985 122.481 453.276 117.674 443.819L28.8433 435.923C30.3515 439.917 32.056 443.953 33.9568 448.033C36.7254 453.844 40.0183 459.391 43.7946 464.604V464.604Z" fill="#E6E6E6"/>
<path d="M253.389 481.426L253.586 482.04C251.354 473.207 247.888 464.733 243.29 456.868L243.516 457.446L223.951 483.521C223.43 494.301 222.506 506.367 220.947 519.058L253.389 481.426Z" fill="#E6E6E6"/>
<path d="M242.991 456.372C238.085 448.378 232.091 442.11 225.131 438.169C224.769 437.964 224.405 437.772 224.041 437.582C224.213 440.511 225.107 457.71 224.039 481.63L242.991 456.372Z" fill="#E6E6E6"/>
<path d="M208.609 579.339C207.81 581.968 206.982 584.55 206.125 587.086L254.473 557.272L254.557 557.991C255.481 553.502 256.234 549.017 256.816 544.536L208.661 579.666L208.609 579.339Z" fill="#E6E6E6"/>
<path d="M214.885 555.079L258.195 517.71L258.335 518.388C258.223 506.353 256.685 494.374 253.755 482.701L220.694 521.05C219.178 532.938 217.242 544.281 214.885 555.079Z" fill="#E6E6E6"/>
<path d="M258.346 519.178L214.451 557.053C212.838 564.244 211.042 571.163 209.062 577.809L256.816 542.971L256.927 543.673C257.95 535.549 258.424 527.366 258.346 519.178V519.178Z" fill="#E6E6E6"/>
<path d="M173.629 647.078C173.668 646.487 173.705 645.88 173.74 645.257C181.563 635.938 188.234 625.709 193.61 614.793L167.099 581.757C166.752 580.629 166.388 579.505 166.009 578.383L194.227 613.548C198.075 605.686 201.448 597.6 204.328 589.334L148.519 533.271C148.693 532.831 148.87 532.38 149.048 531.921L204.786 587.912L204.832 587.883C208.261 577.844 211.147 567.628 213.477 557.279L158.127 502.489C158.243 501.981 158.358 501.469 158.471 500.955L213.822 555.746C214.334 553.451 214.818 551.169 215.275 548.901L160.087 492.707C160.18 492.17 160.269 491.632 160.357 491.092L215.588 547.331C217.443 537.924 218.853 528.824 219.922 520.351L165.817 462.623L166.085 461.951C164.803 463.818 163.557 465.777 162.343 467.805C162.375 461.39 161.854 454.984 160.786 448.659L140.054 500.653C141.729 507.822 142.93 515.094 143.647 522.421C143.522 523.66 143.408 524.907 143.318 526.166L144 526.85C144.043 527.518 144.083 528.185 144.116 528.849L143.21 527.938C143.167 528.668 143.135 529.403 143.103 530.138C142.679 520.249 141.324 510.422 139.057 500.787L60.8099 484.69C64.7514 488.736 68.8823 492.668 73.1038 496.46C64.9092 493.891 56.406 492.438 47.8235 492.14L48.4333 492.259L59.9835 522.743C68.8098 528.954 78.5067 536.193 88.3913 544.304L74.1721 497.415C74.699 497.883 75.2271 498.35 75.7564 498.814L89.9388 545.584C99.1686 553.229 107.713 560.936 115.571 568.707L109.054 524.691C109.511 525.01 109.965 525.326 110.417 525.639L117.006 570.131C122.216 575.342 127.099 580.563 131.653 585.794L128.494 537.537C128.942 537.817 129.382 538.092 129.814 538.36L133.006 587.127L132.702 586.995C134.495 589.077 136.233 591.159 137.917 593.241L138.527 543.624C138.998 543.899 139.432 544.153 139.831 544.384L139.21 594.859C139.727 595.509 140.249 596.158 140.756 596.807C145.623 603.023 150.147 609.5 154.31 616.208L154.605 611.694C154.967 613.032 155.331 614.348 155.694 615.641L155.527 618.208C156.134 619.217 156.723 620.226 157.303 621.234C157.756 622.772 158.204 624.267 158.648 625.719C157.362 623.337 156.02 620.979 154.62 618.644L75.2286 627.52C116.972 649.479 168.773 659.888 172.074 660.537C171.291 657.074 170.339 653.641 169.243 650.241C169.528 649.942 169.81 649.64 170.092 649.339C170.226 649.745 170.366 650.151 170.496 650.557C170.349 650.715 170.204 650.876 170.056 651.033C170.219 650.956 170.39 650.875 170.569 650.79C171.331 653.181 172.015 655.564 172.62 657.939C172.861 656.009 173.185 653.079 173.467 649.373C187.765 642.215 224.794 621.297 243.594 588.503L194.464 615.326C188.865 626.735 181.866 637.401 173.629 647.078V647.078ZM157.351 569.608L157.472 567.745L158.718 569.298L158.597 571.161L157.351 569.608Z" fill="#E6E6E6"/>
<path d="M223.145 437.548L223.58 437.342C212.733 431.854 201.143 432.727 190.15 438.781L223.176 481.606C224.325 455.726 223.163 437.805 223.145 437.548Z" fill="#E6E6E6"/>
<path d="M204.632 591.394C201.987 598.832 198.939 606.121 195.501 613.228L244.165 586.659L244.231 587.367C247.8 581.018 250.551 574.242 252.418 567.202C253.139 564.433 253.791 561.657 254.374 558.875L205.45 589.045C205.178 589.829 204.91 590.618 204.632 591.394Z" fill="#E6E6E6"/>
<path d="M223.086 483.534L189.303 439.726L189.597 439.085C181.344 443.769 173.445 451.377 166.467 461.403L220.131 518.66C221.664 506.112 222.573 494.189 223.086 483.534Z" fill="#E6E6E6"/>
<path d="M47.2451 492.127C37.8659 491.992 29.3631 493.699 22.3087 497.468C21.9417 497.664 21.5847 497.869 21.2289 498.074C23.7951 499.497 38.8015 507.949 58.4331 521.656L47.2451 492.127Z" fill="#E6E6E6"/>
<path d="M88.9351 545.862L11.2117 560.658L10.7872 560.072C14.209 567.932 18.4163 575.426 23.3447 582.44L109.403 563.966C102.451 557.363 95.519 551.301 88.9351 545.862Z" fill="#E6E6E6"/>
<path d="M115.566 569.962C113.901 568.301 112.233 566.671 110.562 565.071L24.1862 583.613L23.7538 583.03C25.4888 585.503 27.3358 587.973 29.2947 590.442L28.8581 589.861L115.566 569.962Z" fill="#E6E6E6"/>
<path d="M153.898 617.456C149.317 609.997 144.293 602.819 138.853 595.961L54.2775 614.718C60.6888 619.275 67.3984 623.398 74.361 627.058L73.9216 626.398L153.898 617.456Z" fill="#E6E6E6"/>
<path d="M20.7211 498.812L20.7796 498.336C10.3379 504.559 4.87098 514.816 4.09961 527.342L57.9506 522.372C36.7069 507.547 20.9475 498.935 20.7211 498.812Z" fill="#E6E6E6"/>
<path d="M59.5313 523.48L4.44462 528.563L4.0602 527.972C3.59855 537.45 5.79576 548.195 10.5284 559.456L87.6188 544.78C77.8408 536.768 68.2558 529.618 59.5313 523.48Z" fill="#E6E6E6"/>
<path d="M137.898 594.759C131.254 586.489 124.17 578.583 116.675 571.074L29.7539 591.022C32.4226 594.354 35.2913 597.666 38.3599 600.958C42.7893 605.629 47.6355 609.887 52.8382 613.678L137.897 594.814L137.898 594.759Z" fill="#E6E6E6"/>
<path d="M78.6975 380.331C85.1717 388.966 92.1563 398.848 99.0496 409.618L100.034 359.942L100.577 360.289C93.2242 354.91 85.1499 350.594 76.5925 347.468L77.1355 347.77L78.6975 380.331Z" fill="#6C63FF"/>
<path d="M76.0464 347.277C67.1683 344.249 58.554 343.245 50.68 344.649C50.2704 344.722 49.8677 344.806 49.4659 344.892C51.4666 347.038 63.1257 359.714 77.5591 378.819L76.0464 347.277Z" fill="#6C63FF"/>
<path d="M127.995 463.914C129.057 466.449 130.066 468.966 131.024 471.465L149.244 417.666L149.769 418.166C147.617 414.119 145.336 410.184 142.926 406.362L128.244 464.133L127.995 463.914Z" fill="#6C63FF"/>
<path d="M117.356 441.227L126.878 384.822L127.418 385.254C119.656 376.057 110.831 367.812 101.129 360.69L100.126 411.313C106.541 421.436 112.284 431.407 117.356 441.227Z" fill="#6C63FF"/>
<path d="M20.5946 401.315L20.3719 400.626C21.1968 409.159 22.8817 417.586 25.4008 425.78L112.955 434.811C108.384 426.382 103.666 418.474 99.0853 411.267L20.5946 401.315Z" fill="#6C63FF"/>
<path d="M25.8385 427.156L25.6075 426.468C26.4932 429.356 27.4862 432.276 28.5862 435.229L28.3503 434.542L116.963 442.418C115.893 440.324 114.81 438.258 113.716 436.22L25.8385 427.156Z" fill="#6C63FF"/>
<path d="M127.368 462.447L141.928 405.157L142.461 405.627C138.068 398.717 133.213 392.112 127.93 385.856L118.28 443.024C121.625 449.591 124.654 456.065 127.368 462.447Z" fill="#6C63FF"/>
<path d="M131.074 474.343L44.8417 466.039C49.5305 472.355 54.6372 478.349 60.1275 483.982L59.9137 483.219L138.737 499.435C136.687 490.925 134.128 482.546 131.074 474.343V474.343Z" fill="#6C63FF"/>
<path d="M48.7547 345.437L48.9578 345.001C37.1037 347.692 28.734 355.758 24.1288 367.431L76.8788 379.351C61.2577 358.685 48.932 345.624 48.7547 345.437Z" fill="#6C63FF"/>
<path d="M132.621 475.735C135.328 483.151 137.63 490.709 139.515 498.376L160.05 446.874L160.551 447.377C159.251 440.21 157.048 433.237 153.995 426.625C152.784 424.032 151.516 421.478 150.191 418.964L131.753 473.405C132.044 474.182 132.34 474.961 132.621 475.735Z" fill="#6C63FF"/>
<path d="M98.168 409.831C91.3455 399.189 84.4399 389.426 78.0397 380.893L24.0794 368.7L23.8965 368.019C20.5279 376.89 19.2963 387.788 20.3165 399.96L98.168 409.831Z" fill="#6C63FF"/>
<path d="M43.7946 464.604L130.519 472.956L130.537 472.904C126.774 462.985 122.481 453.276 117.674 443.819L28.8433 435.923C30.3515 439.917 32.056 443.953 33.9568 448.033C36.7254 453.844 40.0183 459.391 43.7946 464.604V464.604Z" fill="#6C63FF"/>
<path d="M253.389 481.426L253.586 482.04C251.354 473.207 247.888 464.733 243.29 456.868L243.516 457.446L223.951 483.521C223.43 494.301 222.506 506.367 220.947 519.058L253.389 481.426Z" fill="#6C63FF"/>
<path d="M242.991 456.372C238.085 448.378 232.091 442.11 225.131 438.169C224.769 437.964 224.405 437.772 224.041 437.582C224.213 440.511 225.107 457.71 224.039 481.63L242.991 456.372Z" fill="#6C63FF"/>
<path d="M208.609 579.339C207.81 581.968 206.982 584.55 206.125 587.086L254.473 557.272L254.557 557.991C255.481 553.502 256.234 549.017 256.816 544.536L208.661 579.666L208.609 579.339Z" fill="#6C63FF"/>
<path d="M214.885 555.079L258.195 517.71L258.335 518.388C258.223 506.353 256.685 494.374 253.755 482.701L220.694 521.05C219.178 532.938 217.242 544.281 214.885 555.079Z" fill="#6C63FF"/>
<path d="M258.346 519.178L214.451 557.053C212.838 564.244 211.042 571.163 209.062 577.809L256.816 542.971L256.927 543.673C257.95 535.549 258.424 527.366 258.346 519.178V519.178Z" fill="#6C63FF"/>
<path d="M173.629 647.078C173.668 646.487 173.705 645.88 173.74 645.257C181.563 635.938 188.234 625.709 193.61 614.793L167.099 581.757C166.752 580.629 166.388 579.505 166.009 578.383L194.227 613.548C198.075 605.686 201.448 597.6 204.328 589.334L148.519 533.271C148.693 532.831 148.87 532.38 149.048 531.921L204.786 587.912L204.832 587.883C208.261 577.844 211.147 567.628 213.477 557.279L158.127 502.489C158.243 501.981 158.358 501.469 158.471 500.955L213.822 555.746C214.334 553.451 214.818 551.169 215.275 548.901L160.087 492.707C160.18 492.17 160.269 491.632 160.357 491.092L215.588 547.331C217.443 537.924 218.853 528.824 219.922 520.351L165.817 462.623L166.085 461.951C164.803 463.818 163.557 465.777 162.343 467.805C162.375 461.39 161.854 454.984 160.786 448.659L140.054 500.653C141.729 507.822 142.93 515.094 143.647 522.421C143.522 523.66 143.408 524.907 143.318 526.166L144 526.85C144.043 527.518 144.083 528.185 144.116 528.849L143.21 527.938C143.167 528.668 143.135 529.403 143.103 530.138C142.679 520.249 141.324 510.422 139.057 500.787L60.8099 484.69C64.7514 488.736 68.8823 492.668 73.1038 496.46C64.9092 493.891 56.406 492.438 47.8235 492.14L48.4333 492.259L59.9835 522.743C68.8098 528.954 78.5067 536.193 88.3913 544.304L74.1721 497.415C74.699 497.883 75.2271 498.35 75.7564 498.814L89.9388 545.584C99.1686 553.229 107.713 560.936 115.571 568.707L109.054 524.691C109.511 525.01 109.965 525.326 110.417 525.639L117.006 570.131C122.216 575.342 127.099 580.563 131.653 585.794L128.494 537.537C128.942 537.817 129.382 538.092 129.814 538.36L133.006 587.127L132.702 586.995C134.495 589.077 136.233 591.159 137.917 593.241L138.527 543.624C138.998 543.899 139.432 544.153 139.831 544.384L139.21 594.859C139.727 595.509 140.249 596.158 140.756 596.807C145.623 603.023 150.147 609.5 154.31 616.208L154.605 611.694C154.967 613.032 155.331 614.348 155.694 615.641L155.527 618.208C156.134 619.217 156.723 620.226 157.303 621.234C157.756 622.772 158.204 624.267 158.648 625.719C157.362 623.337 156.02 620.979 154.62 618.644L75.2286 627.52C116.972 649.479 168.773 659.888 172.074 660.537C171.291 657.074 170.339 653.641 169.243 650.241C169.528 649.942 169.81 649.64 170.092 649.339C170.226 649.745 170.366 650.151 170.496 650.557C170.349 650.715 170.204 650.876 170.056 651.033C170.219 650.956 170.39 650.875 170.569 650.79C171.331 653.181 172.015 655.564 172.62 657.939C172.861 656.009 173.185 653.079 173.467 649.373C187.765 642.215 224.794 621.297 243.594 588.503L194.464 615.326C188.865 626.735 181.866 637.401 173.629 647.078V647.078ZM157.351 569.608L157.472 567.745L158.718 569.298L158.597 571.161L157.351 569.608Z" fill="#6C63FF"/>
<path d="M223.145 437.548L223.58 437.342C212.733 431.854 201.143 432.727 190.15 438.781L223.176 481.606C224.325 455.726 223.163 437.805 223.145 437.548Z" fill="#6C63FF"/>
<path d="M204.632 591.394C201.987 598.832 198.939 606.121 195.501 613.228L244.165 586.659L244.231 587.367C247.8 581.018 250.551 574.242 252.418 567.202C253.139 564.433 253.791 561.657 254.374 558.875L205.45 589.045C205.178 589.829 204.91 590.618 204.632 591.394Z" fill="#6C63FF"/>
<path d="M223.086 483.534L189.303 439.726L189.597 439.085C181.344 443.769 173.445 451.377 166.467 461.403L220.131 518.66C221.664 506.112 222.573 494.189 223.086 483.534Z" fill="#6C63FF"/>
<path d="M47.2451 492.127C37.8659 491.992 29.3631 493.699 22.3087 497.468C21.9417 497.664 21.5847 497.869 21.2289 498.074C23.7951 499.497 38.8015 507.949 58.4331 521.656L47.2451 492.127Z" fill="#6C63FF"/>
<path d="M88.9351 545.862L11.2117 560.658L10.7872 560.072C14.209 567.932 18.4163 575.426 23.3447 582.44L109.403 563.966C102.451 557.363 95.519 551.301 88.9351 545.862Z" fill="#6C63FF"/>
<path d="M115.566 569.962C113.901 568.301 112.233 566.671 110.562 565.071L24.1862 583.613L23.7538 583.03C25.4888 585.503 27.3358 587.973 29.2947 590.442L28.8581 589.861L115.566 569.962Z" fill="#6C63FF"/>
<path d="M153.898 617.456C149.317 609.997 144.293 602.819 138.853 595.961L54.2775 614.718C60.6888 619.275 67.3984 623.398 74.361 627.058L73.9216 626.398L153.898 617.456Z" fill="#6C63FF"/>
<path d="M20.7211 498.812L20.7796 498.336C10.3379 504.559 4.87098 514.816 4.09961 527.342L57.9506 522.372C36.7069 507.547 20.9475 498.935 20.7211 498.812Z" fill="#6C63FF"/>
<path d="M59.5313 523.48L4.44462 528.563L4.0602 527.972C3.59855 537.45 5.79576 548.195 10.5284 559.456L87.6188 544.78C77.8408 536.768 68.2558 529.618 59.5313 523.48Z" fill="#6C63FF"/>
<path d="M137.898 594.759C131.254 586.489 124.17 578.583 116.675 571.074L29.7539 591.022C32.4226 594.354 35.2913 597.666 38.3599 600.958C42.7893 605.629 47.6355 609.887 52.8382 613.678L137.897 594.814L137.898 594.759Z" fill="#6C63FF"/>
<path d="M498.276 415H483.276V525H498.276V415Z" fill="#3F3D56"/>
<path d="M675.276 415H660.276V525H675.276V415Z" fill="#3F3D56"/>
<path d="M852.276 398H306.276V423H852.276V398Z" fill="#E6E6E6"/>
<path d="M852.276 477H306.276V502H852.276V477Z" fill="#E6E6E6"/>
<path d="M852.276 431H306.276V446H852.276V431Z" fill="#E6E6E6"/>
<path d="M852.276 454H306.276V469H852.276V454Z" fill="#E6E6E6"/>
<path d="M321.776 393.5H304.776V525.5H321.776V393.5Z" fill="#3F3D56"/>
<path d="M852.276 393H835.276V525H852.276V393Z" fill="#3F3D56"/>
<path d="M275.276 560H258.276V697H275.276V560Z" fill="#3F3D56"/>
<path d="M331.276 555H314.276V628H331.276V555Z" fill="#3F3D56"/>
<path d="M848.276 555H831.276V628H848.276V555Z" fill="#3F3D56"/>
<path d="M896.276 560H879.276V697H896.276V560Z" fill="#3F3D56"/>
<path d="M896.276 560H258.276V578H896.276V560Z" fill="#3F3D56"/>
<path d="M304.276 520L258.276 560H896.276L852.276 520H304.276Z" fill="#E6E6E6"/>
<path opacity="0.1" d="M203.756 27.74L203.626 27.02L191.316 20.5H189.384L188.646 19.0839H163.276L157.393 20.5H135.726L129.856 27.35L129.796 27.77C129.416 30.22 120.926 87.83 143.326 106.16L152.666 110.5H158.706L157.526 108.142L162.776 110.5H179.776L180.078 110.047L190.166 106.27L190.426 105.97C191.336 104.89 212.776 78.84 203.756 27.74Z" fill="#6C63FF"/>
<path d="M173.276 85H163.276V111H173.276V85Z" fill="#E6E6E6"/>
<path d="M176.776 144.5H158.776V644.5H176.776V144.5Z" fill="#3F3D56"/>
<path d="M181.276 136H154.276V153H181.276V136Z" fill="#3F3D56"/>
<path d="M144.276 105L161.276 123L154.276 136L168.276 139L181.276 136L173.276 122L189.276 105H144.276Z" fill="#3F3D56"/>
<path d="M131.276 28L123.276 20L129.276 14H205.276L211.276 21L202.276 28C202.276 28 154.276 26 131.276 28Z" fill="#3F3D56"/>
<path d="M203.756 27.74L203.626 27.02L191.316 20.5L185.696 17.52L154.146 15.49L136.456 19.65L135.726 20.5L129.856 27.35L129.796 27.77C129.416 30.22 120.926 87.83 143.326 106.16L152.666 110.5L160.526 114.15L158.706 110.5L155.716 104.53C152.586 86.31 145.706 38.44 150.096 28.44L168.236 22.59L184.336 28.57C185.446 35.76 192.626 86.17 180.046 104.14L179.776 104.53V110.16L190.166 106.27L190.426 105.97C191.336 104.89 212.776 78.84 203.756 27.74ZM188.356 103.74L182.776 105.84V105.46C196.576 84.87 187.556 29.58 187.166 27.22L187.026 26.36L171.246 20.5L168.316 19.41L164.936 20.5L148.016 25.96L147.726 26.47C141.296 38 152.326 102.51 152.796 105.25L152.836 105.47L154.026 107.85L145.076 103.72C125.126 87.11 131.966 33.92 132.696 28.65L138.096 22.35L145.956 20.5L154.406 18.51L168.316 19.41L184.856 20.48L184.896 20.5L200.926 28.98C208.866 75.33 190.646 100.78 188.356 103.74V103.74Z" fill="#3F3D56"/>
<path d="M168.276 28C183.188 28 195.276 21.732 195.276 14C195.276 6.26801 183.188 0 168.276 0C153.364 0 141.276 6.26801 141.276 14C141.276 21.732 153.364 28 168.276 28Z" fill="#3F3D56"/>
<path d="M154.276 619L138.276 670C138.276 670 163.276 684 197.276 670L181.276 619H154.276Z" fill="#3F3D56"/>
<path d="M168.276 88C172.694 88 176.276 84.4183 176.276 80C176.276 75.5817 172.694 72 168.276 72C163.858 72 160.276 75.5817 160.276 80C160.276 84.4183 163.858 88 168.276 88Z" fill="#6C63FF"/>
<path d="M437.586 359.319C440.417 357.304 443.542 355.737 446.85 354.673C467.823 346.869 489.799 342.086 512.118 340.465C531.526 339.089 552.56 340.724 567.718 352.921C570.076 354.651 572.005 356.899 573.358 359.491C575.265 363.607 574.687 368.39 574.07 372.884C573.931 374.626 573.492 376.332 572.771 377.925C570.731 381.809 565.709 383.169 561.347 382.704C556.985 382.238 552.892 380.392 548.589 379.537C545.926 379.073 543.234 378.798 540.532 378.716L513.547 377.255C496.767 376.347 479.766 375.453 463.306 378.84C458.239 379.751 453.343 381.438 448.791 383.842C445.031 385.953 442.5 388.981 439.011 385.083C432.883 378.234 429.49 365.645 437.586 359.319Z" fill="#2F2E41"/>
<path d="M479.402 371.252C479.402 371.252 515.697 354.981 529.464 373.755C543.232 392.528 521.955 385.019 521.955 385.019L498.175 392.528L471.892 387.522L479.402 371.252Z" fill="#F2F2F2"/>
<path d="M481.279 359.362C481.279 359.362 486.285 383.142 482.531 389.399C478.776 395.657 503.807 404.418 503.807 404.418L527.587 394.406C527.587 394.406 521.329 355.607 527.587 348.098L481.279 359.362Z" fill="#FFB9B9"/>
<path opacity="0.1" d="M481.279 359.362C481.279 359.362 486.285 383.142 482.531 389.399C478.776 395.657 503.807 404.418 503.807 404.418L527.587 394.406C527.587 394.406 521.329 355.607 527.587 348.098L481.279 359.362Z" fill="black"/>
<path d="M457.827 645.297C461.408 652.162 463.729 659.599 466.098 666.971C466.133 667.217 466.219 667.453 466.352 667.663C466.484 667.873 466.66 668.052 466.867 668.19C467.073 668.327 467.307 668.42 467.552 668.461C467.797 668.502 468.048 668.491 468.288 668.428L490.55 668.403C493.297 668.4 496.983 667.518 496.955 664.77C496.935 662.84 494.962 661.637 493.493 660.384C489.418 656.906 488.357 651.173 486.669 646.089C483.389 636.294 477.067 627.803 468.624 621.852C467.483 620.959 466.17 620.309 464.766 619.945C463.355 619.741 461.918 619.819 460.537 620.175C456.629 620.963 442.036 623.661 444.792 629.345C445.979 631.793 450.378 634.34 452.223 636.627C454.372 639.325 456.249 642.229 457.827 645.297Z" fill="#575A89"/>
<path d="M535.24 619.477C534.456 621.127 533.582 622.733 532.623 624.288C529.398 629.608 525.592 634.569 522.589 640.017C520.715 643.415 519.138 647.087 518.931 650.962C518.724 654.837 520.089 658.961 523.18 661.306C526.412 663.758 530.842 663.872 534.859 663.301C538.875 662.729 542.868 661.578 546.913 661.881C545.55 654.163 552.059 647.37 553.687 639.703C554.144 637.55 554.212 635.317 554.825 633.203C555.484 631.269 556.328 629.403 557.345 627.631C560.586 621.319 562.877 614.562 564.143 607.58C564.296 606.733 544.354 606.594 542.484 606.999C536.646 608.261 537.5 614.636 535.24 619.477Z" fill="#575A89"/>
<path d="M381.535 498.221C375.842 507.13 377.154 518.936 381.152 528.724C385.151 538.511 391.515 547.163 395.87 556.797C398.647 562.939 400.594 569.451 403.721 575.422C407.593 582.816 413.246 589.333 415.844 597.265C417.501 602.321 417.881 607.863 420.564 612.457C422.185 614.912 424.036 617.209 426.091 619.315C431.87 625.935 436.209 633.685 438.832 642.072C441.284 634.767 448.627 629.978 456.168 628.398C463.71 626.819 471.524 627.892 479.154 628.969C474.898 622.376 470.6 615.699 468.063 608.273C465.61 601.091 464.886 593.45 463.233 586.043C459.844 570.852 452.604 556.841 445.436 543.026L482.278 540.104C488.291 539.499 494.337 539.275 500.379 539.432C509.888 539.88 519.204 542.212 528.663 543.289C538.121 544.366 548.128 544.084 556.557 539.66C540.438 562.787 532.044 590.418 532.574 618.603C536.176 615.812 540.357 613.861 544.811 612.895C549.265 611.928 553.878 611.969 558.314 613.016C562.749 614.063 566.895 616.088 570.447 618.944C573.998 621.8 576.866 625.414 578.841 629.522C593.279 609.792 591.562 582.324 603.003 560.718C605.355 556.275 608.239 552.136 610.778 547.797C615.799 539.216 619.441 529.911 623.062 520.651C626.262 512.465 629.486 503.358 626.417 495.122C625.142 491.998 623.286 489.144 620.947 486.712C614.346 479.434 605.158 474.051 595.336 473.827C580.257 473.482 567.8 484.66 554.573 491.907C538.993 500.444 520.817 503.838 503.095 502.583C484.926 501.296 467.574 495.349 450.263 490.111C441.604 487.369 432.802 485.099 423.896 483.31C416.473 481.917 409.403 483.46 402.088 485.358C394.124 487.425 386.119 491.047 381.535 498.221Z" fill="#2F2E41"/>
<path d="M538.851 335.582C538.843 345.538 534.885 355.083 527.845 362.123C520.805 369.162 511.26 373.121 501.304 373.129C499.067 373.133 496.834 372.932 494.633 372.528C487.607 371.259 481.087 368.013 475.84 363.17C470.593 358.327 466.836 352.088 465.01 345.185C463.183 338.282 463.363 331.002 465.528 324.197C467.692 317.393 471.753 311.347 477.232 306.769C482.712 302.19 489.383 299.27 496.464 298.349C503.545 297.428 510.741 298.545 517.209 301.57C523.677 304.594 529.149 309.401 532.982 315.425C536.816 321.449 538.851 328.442 538.851 335.582V335.582Z" fill="#FFB9B9"/>
<path d="M479.402 371.252C479.402 371.252 486.285 374.381 488.789 376.884C491.292 379.387 498.801 393.154 511.317 384.393C523.832 375.632 525.084 370.626 528.839 370.626C532.593 370.626 537.6 378.135 537.6 378.135L572.018 481.389C562.741 491.86 551.99 500.924 540.103 508.298C520.078 520.813 496.298 527.071 485.034 522.065C473.77 517.059 452.493 513.304 448.738 503.292C444.984 493.279 438.726 463.242 438.726 463.242L456.248 386.896L479.402 371.252Z" fill="#F2F2F2"/>
<path d="M474.569 475.68C477.298 469.786 477.695 463.115 477.926 456.624C478.293 450.195 478.123 443.747 477.416 437.347C476.307 428.975 473.581 420.909 471.859 412.642C470.35 405.39 469.616 397.999 469.67 390.593C469.695 387.213 469.94 383.655 471.782 380.821C473.067 378.844 475.076 377.313 475.879 375.096C477.453 370.75 473.564 366.198 469.301 364.408C464.23 362.279 458.435 362.422 453.1 363.758C447.765 365.094 442.789 367.552 437.86 369.992C434.3 371.755 430.664 373.572 427.903 376.429C424.018 380.449 422.309 386.048 420.93 391.466C419.826 395.803 418.845 400.324 419.685 404.719C421.049 411.856 426.867 417.224 429.969 423.795C433.57 431.426 433.328 440.318 431.895 448.633C430.463 456.948 427.92 465.079 427.135 473.48C426.351 481.881 427.555 490.912 432.818 497.507C434.963 500.194 440.782 506.563 444.709 505.843C447.793 505.277 452.266 498.486 454.751 496.333C461.929 490.115 470.447 484.584 474.569 475.68Z" fill="#2F2E41"/>
<path d="M540.142 367.17C540.252 374.15 537.175 380.785 533.556 386.756C529.938 392.726 525.687 398.372 523.021 404.824C519.707 412.901 519.031 421.818 521.088 430.301C521.852 433.191 522.774 436.037 523.849 438.827L530.706 457.636C531.629 460.593 532.968 463.405 534.683 465.985C536.233 467.961 538.052 469.711 540.087 471.183C545.296 475.39 551.29 478.517 557.719 480.382C564.171 482.087 571.231 481.98 577.326 479.264C577.987 453.765 582.084 428.472 589.506 404.068C590.877 399.563 592.375 394.82 591.317 390.231C590.133 385.091 586.004 381.232 582.08 377.708C570.077 366.93 556.879 355.609 540.814 354.156C531.515 353.315 540.063 362.123 540.142 367.17Z" fill="#2F2E41"/>
<path d="M458.009 512.682C458.961 514.546 459.553 516.575 460.495 518.444C461.884 520.95 463.601 523.259 465.601 525.311C473.97 534.59 484.199 543.833 496.682 544.393C497.922 544.509 499.172 544.352 500.345 543.932C502.528 543.024 503.819 540.684 504.243 538.358C505.128 533.511 502.989 528.675 500.847 524.238C496.204 514.622 490.98 504.761 482.287 498.559C473.718 492.445 462.236 490.961 452.243 494.039C447.714 495.434 440.206 497.87 446.201 502.001C450.749 505.135 455.372 507.521 458.009 512.682Z" fill="#FFB9B9"/>
<path d="M511.969 390.253C510.44 386.838 508.841 383.324 506.095 380.782C503.5 378.588 500.427 377.032 497.123 376.237C492.842 375.014 488.414 374.379 483.961 374.35C478.661 374.317 472.515 375.739 470.264 380.538C468.476 384.349 469.862 388.862 471.662 392.667C472.431 394.638 473.712 396.368 475.372 397.679C477.658 399.223 480.614 399.174 483.324 399.692C487.572 400.503 491.375 402.78 495.076 405.017L504.36 410.629L520.307 420.268C519.886 420.014 520.036 409.079 519.546 407.286C517.968 401.513 514.416 395.72 511.969 390.253Z" fill="#FFB9B9"/>
<path d="M465.518 664.137C461.786 669.208 462.534 676.456 459.229 681.814C456.364 686.458 450.965 688.893 447.381 693.009C446.238 694.376 445.218 695.843 444.335 697.391C441.011 702.959 438.309 710.095 441.583 715.693C444.217 720.197 449.753 721.957 454.83 723.156C461.247 724.672 467.914 725.886 474.405 724.727C480.896 723.569 487.24 719.594 489.555 713.42C490.01 711.867 490.551 710.341 491.175 708.849C494.693 701.922 505.729 701.847 509.329 694.963C511.849 690.146 509.533 684.323 507.217 679.404L500.146 664.38C497.799 659.394 488.285 662.261 483.326 661.067C476.857 659.508 470.171 657.792 465.518 664.137Z" fill="#2F2E41"/>
<path d="M520.216 651.231C517.215 653.334 515.275 656.634 513.817 659.996C510.317 668.071 509.116 676.922 507.949 685.645C507.481 689.139 507.016 692.716 507.746 696.165C509.254 703.288 515.709 708.534 522.657 710.712C529.605 712.89 537.057 712.555 544.33 712.198C546.666 712.083 549.095 711.943 551.143 710.814C554.798 708.799 556.226 704.061 555.599 699.935C554.972 695.809 552.718 692.137 550.511 688.594C548.304 685.052 546.048 681.382 545.416 677.257C544.353 670.317 547.353 660.13 543.089 653.851C538.817 647.559 525.918 647.234 520.216 651.231Z" fill="#2F2E41"/>
<path d="M537.907 316.015C537.239 313.769 535.767 311.849 533.773 310.619C533.876 308.214 533.581 305.808 532.9 303.499C530.627 296.777 525.24 297.162 520.158 294.19C517.952 292.901 518.089 291.761 516.941 289.643C515.437 286.867 513.184 284.568 510.438 283.008C507.177 280.931 503.735 278.791 499.878 278.529C491.772 277.976 485.557 285.601 477.809 288.048C474.394 289.126 470.724 289.171 467.291 290.19C463.858 291.21 460.433 293.645 459.921 297.189C459.685 298.826 460.102 300.504 459.862 302.14C459.386 305.392 456.533 307.669 454.623 310.343C450.4 316.257 450.883 324.612 454.261 331.047C454.972 332.379 455.786 333.653 456.696 334.858C456.977 337.899 457.851 340.856 459.267 343.563C462.644 349.998 468.455 354.806 474.526 358.801C474.029 356.667 473.727 354.492 473.625 352.303C473.54 351.574 473.634 350.834 473.902 350.15C474.578 348.737 476.364 348.361 477.726 347.587C480.547 345.984 481.653 342.436 481.735 339.192C481.817 335.949 481.129 332.7 481.469 329.473C481.482 328.731 481.651 328 481.964 327.327C482.277 326.654 482.728 326.054 483.287 325.566C484.328 324.972 485.518 324.689 486.715 324.749C492.495 324.513 498.534 324.407 503.632 321.673C505.372 320.741 506.989 319.508 508.898 319.01C513.231 317.88 517.659 320.917 520.156 324.634C522.653 328.35 523.898 332.773 526.202 336.613C528.506 340.453 532.486 343.877 536.941 343.422C537.192 343.422 537.44 343.37 537.669 343.268C537.898 343.166 538.104 343.017 538.271 342.83C538.463 342.485 538.549 342.09 538.516 341.697L538.765 324.669C538.972 321.757 538.682 318.83 537.907 316.015Z" fill="#2F2E41"/>
<path d="M419.082 405.083C415.5 410.368 411.369 415.449 409.4 421.523C408.243 425.093 407.883 428.866 407.045 432.524C404.254 444.708 396.191 455.53 395.381 468.004C395.097 470.775 395.504 473.574 396.565 476.15C398.878 481.181 404.414 483.833 409.694 485.501C414.975 487.169 420.645 488.37 424.86 491.962C426.982 493.996 428.906 496.227 430.606 498.624C437.482 507.177 446.733 513.506 457.196 516.816C456.369 511.122 455.981 504.257 460.534 500.737C462.998 498.832 466.291 498.493 469.394 498.224L484.058 496.957C474.28 487.472 463.501 479.076 451.912 471.915C447.857 469.41 443.444 466.768 441.593 462.376C440.435 459.63 440.451 456.555 440.423 453.575C440.323 442.669 439.399 431.786 437.661 421.019C436.454 413.543 434.855 406.133 433.027 398.784C432.514 396.721 429.48 387.467 425.746 389.632C424.867 390.142 424.044 396.012 423.531 397.231C422.308 399.987 420.818 402.617 419.082 405.083V405.083Z" fill="#2F2E41"/>
<path d="M587.981 385.11L593.97 397.565C596.855 402.686 598.168 408.543 597.745 414.406L598.101 451.766C598.148 456.758 598.187 461.826 596.872 466.642C596.499 468.25 595.796 469.763 594.807 471.084C593.791 472.224 592.595 473.188 591.265 473.938C579.931 481.019 565.235 485.044 553.26 479.11C550.518 477.648 547.91 475.946 545.468 474.023C540.696 470.489 535.853 466.886 532.283 462.141C528.546 457.174 526.405 451.228 523.891 445.544C519.38 435.347 513.55 425.786 506.553 417.105C505.536 415.844 504.442 414.469 504.406 412.849C504.331 409.574 508.217 407.962 511.246 406.716C516.421 404.588 521.301 400.481 522.168 394.952C533.173 409.384 545.317 424.633 562.684 429.906C562.956 430.08 563.271 430.177 563.594 430.187C563.917 430.197 564.236 430.12 564.519 429.963C564.801 429.806 565.036 429.575 565.198 429.296C565.36 429.016 565.444 428.698 565.44 428.375C566.426 424.25 566.774 420.003 567.495 415.824C568.818 408.214 571.365 400.869 575.037 394.074C577.094 390.264 583.754 376.319 587.981 385.11Z" fill="#2F2E41"/>
<path opacity="0.1" d="M439.375 421.127C439.541 429.968 437.663 438.727 433.887 446.724C432.905 448.491 432.182 450.39 431.738 452.362C431.081 456.57 433.476 460.644 436.213 463.906C441.612 470.323 448.615 475.195 456.509 478.026" fill="black"/>
<path opacity="0.1" d="M569.415 413.675C568.533 416.048 569.334 418.672 570.014 421.111C571.985 428.184 572.905 435.508 572.745 442.849C572.773 442.977 572.769 443.111 572.733 443.237C572.697 443.364 572.63 443.479 572.539 443.574C572.447 443.668 572.333 443.737 572.207 443.776C572.082 443.816 571.948 443.823 571.819 443.797C568.93 443.974 565.623 443.993 563.663 441.863" fill="black"/>
<path d="M1022.43 127.5H665.124V198.045H1022.43V127.5Z" fill="#E6E6E6"/>
<path d="M1022.43 209.955H665.124V280.5H1022.43V209.955Z" fill="#E6E6E6"/>
<path d="M702.686 183.386C714.324 183.386 723.758 173.952 723.758 162.314C723.758 150.677 714.324 141.243 702.686 141.243C691.049 141.243 681.615 150.677 681.615 162.314C681.615 173.952 691.049 183.386 702.686 183.386Z" fill="#6C63FF"/>
<path d="M961.046 154.069H753.076V158.65H961.046V154.069Z" fill="#6C63FF"/>
<path d="M961.046 165.979H753.076V170.56H961.046V165.979Z" fill="#6C63FF"/>
<path d="M702.686 266.757C714.324 266.757 723.758 257.323 723.758 245.686C723.758 234.048 714.324 224.614 702.686 224.614C691.049 224.614 681.615 234.048 681.615 245.686C681.615 257.323 691.049 266.757 702.686 266.757Z" fill="#CCCCCC"/>
<path d="M961.046 237.44H753.076V242.021H961.046V237.44Z" fill="#CCCCCC"/>
<path d="M961.046 249.35H753.076V253.931H961.046V249.35Z" fill="#CCCCCC"/>
<path d="M1022.43 290.955H665.124V361.5H1022.43V290.955Z" fill="#E6E6E6"/>
<path d="M702.686 347.757C714.324 347.757 723.758 338.323 723.758 326.686C723.758 315.048 714.324 305.614 702.686 305.614C691.049 305.614 681.615 315.048 681.615 326.686C681.615 338.323 691.049 347.757 702.686 347.757Z" fill="#CCCCCC"/>
<path d="M961.046 318.44H753.076V323.021H961.046V318.44Z" fill="#CCCCCC"/>
<path d="M961.046 330.35H753.076V334.931H961.046V330.35Z" fill="#CCCCCC"/>
<path d="M700.766 170.281L693.219 160.218L695.007 158.878L701.155 167.075L725.361 147.27L726.776 149L700.766 170.281Z" fill="#F2F2F2"/>
</g>
<defs>
<filter id="filter0_d" x="0" y="0" width="1026.43" height="733.188" filterUnits="userSpaceOnUse" color-interpolation-filters="sRGB">
<feFlood flood-opacity="0" result="BackgroundImageFix"/>
<feColorMatrix in="SourceAlpha" type="matrix" values="0 0 0 0 0 0 0 0 0 0 0 0 0 0 0 0 0 0 127 0"/>
<feOffset dy="4"/>
<feGaussianBlur stdDeviation="2"/>
<feColorMatrix type="matrix" values="0 0 0 0 0 0 0 0 0 0 0 0 0 0 0 0 0 0 0.25 0"/>
<feBlend mode="normal" in2="BackgroundImageFix" result="effect1_dropShadow"/>
<feBlend mode="normal" in="SourceGraphic" in2="effect1_dropShadow" result="shape"/>
</filter>
<clipPath id="clip0">
<rect width="1018.43" height="725.188" fill="white" transform="translate(4)"/>
</clipPath>
</defs>
</svg>
