<?xml version='1.0' encoding='utf-8'?>
<svg xmlns="http://www.w3.org/2000/svg" version="1.1" width="600px" height="976px" viewBox="0 0 600 976"> <g id="layer1"> <g style="fill:rgb(255,225,0); fill-opacity:1.0; stroke-linejoin: miter"> <path d="M405.54785,389.76447L427.27368,395.31396L445.26474,401.6073L450.0,480.64066L434.35474,486.39093L390.03406,469.98627L396.41687,393.80185L405.40637,389.82483"/> </g> <g style="fill:rgb(181,230,231); fill-opacity:1.0; stroke-linejoin: miter"> <path d="M395.79962,392.3836L417.50876,397.92728L435.51297,404.16797L440.30527,483.01834Q440.36975,483.2437,440.21896,483.2685L424.5992,489.01273L380.28247,472.64532L386.68073,396.2775L395.7456,392.40656"/> </g> <g style="fill:rgb(215,215,215); fill-opacity:1.0; stroke-linejoin: miter"> <path d="M417.21722,366.29437Q420.25998,366.23627,424.41006,375.75906Q427.0021,381.51398,432.26086,397.39502Q432.41272,398.45886,431.35498,398.57135Q430.79037,398.53705,430.54037,397.97705Q424.77762,380.67383,421.96658,374.70438Q419.19858,368.68268,417.381,368.1593Q415.72498,367.6474,413.49817,373.37912Q411.83353,377.38583,408.5447,391.17703Q407.695,392.20673,406.90347,391.16205Q406.77985,390.89728,406.83813,390.59473Q408.4522,383.8361,409.38034,380.4264Q410.89163,374.83405,412.1258,371.872Q414.49768,366.13553,417.16928,366.29218"/> </g> <g style="fill:rgb(215,215,215); fill-opacity:1.0; stroke-linejoin: miter"> <path d="M415.81488,367.7253Q418.95517,367.69232,423.23483,377.7021Q425.81894,383.60944,430.85,398.80014Q431.0178,399.90765,429.93924,400.00137Q429.37564,399.9623,429.13095,399.38666Q423.5079,382.51596,420.73798,376.50906Q417.85403,370.13907,415.98514,369.5921Q414.2724,369.02246,411.8864,375.33603Q410.28616,379.46936,407.1312,392.6214Q406.32056,393.633,405.4992,392.5889Q405.37482,392.31863,405.43896,392.01215Q407.0711,385.19156,407.9172,382.08136Q409.44397,376.4032,410.68542,373.39462Q413.07825,367.5663,415.75735,367.7226"/> </g> <g style="fill:rgb(215,215,215); fill-opacity:1.0; stroke-linejoin: miter"> <path d="M418.008,367.90472Q421.17902,368.3047,422.63074,378.12802Q423.68112,384.558,424.3576,402.43973Q424.24652,403.3548,423.33807,403.34036Q422.6948,403.23434,422.54926,402.56378Q421.73297,383.07837,420.60287,376.71027Q419.55588,370.26276,417.85822,369.73013Q416.0361,369.1293,412.0376,375.253Q408.48395,380.55917,400.53162,396.07053Q400.20844,396.53854,399.5602,396.43552Q398.98917,396.2696,398.88138,395.6614Q398.84946,395.39423,398.97388,395.14307Q403.3012,386.68372,405.2926,383.06232Q408.3223,377.50415,410.67282,374.08716Q415.23053,367.4685,417.98593,367.90167"/> </g> <g style="fill:rgb(215,215,215); fill-opacity:1.0; stroke-linejoin: miter"> <path d="M416.28003,368.91803Q419.5431,369.34204,420.9912,379.7078Q421.98032,386.30777,422.62952,403.45355Q422.50397,404.3849,421.6017,404.3523Q420.96518,404.2464,420.82095,403.5692Q420.03073,384.74506,418.95584,378.1991Q417.86276,371.21338,416.1133,370.73807Q414.23413,370.16626,410.09622,376.5882Q406.54535,381.98828,398.79504,397.09613Q398.4665,397.5587,397.81326,397.44318Q397.24994,397.27292,397.1507,396.649Q397.12793,396.37567,397.25775,396.13315Q401.47784,387.88565,403.43103,384.31924Q406.5634,378.56134,408.92227,375.13327Q413.47223,368.52484,416.20956,368.90793"/> </g> <g style="fill:rgb(255,206,181); fill-opacity:1.0; stroke-linejoin: miter"> <path d="M413.6056,367.02936Q414.60587,371.3277,415.6483,372.75497Q416.21738,373.6115,417.0586,374.11603Q417.44046,374.35123,417.9604,374.5744L419.9826,375.3754Q420.4793,375.61325,420.74536,375.87494Q421.59784,376.84616,420.95294,377.84796Q419.94543,379.06656,417.19156,378.1674Q414.24466,377.23077,408.51352,373.88162L413.59573,367.04242"/> </g> <g style="fill:rgb(255,0,26); fill-opacity:1.0; stroke-linejoin: miter"> <path d="M221.99524,498.1858L199.70404,500.6164L181.0054,504.31003L165.17332,581.8859L179.8515,589.7848L226.04233,579.7936L230.46565,503.47037L222.12682,498.2655"/> </g> <g style="fill:rgb(255,206,181); fill-opacity:1.0; stroke-linejoin: miter"> <path d="M240.87674,461.18384L234.14186,464.9685L224.9903,469.23474Q219.79422,466.21436,217.55853,465.90662Q214.9443,465.36157,212.69073,466.9798Q210.49437,468.56223,208.84149,471.50702Q207.14594,474.61743,207.50809,476.3405Q207.74475,477.478,209.06297,477.73343Q209.54402,477.95258,213.76431,477.51843Q214.47621,477.511,214.77107,477.61627Q215.47375,477.79065,215.28621,478.72314Q214.79662,480.34088,212.93028,481.89685Q212.2521,482.43954,211.36847,482.77686Q210.99982,482.91452,210.6265,483.0082L208.96475,483.38843Q208.68716,483.55884,208.81375,483.81253Q209.41183,484.8131,211.01825,485.16693Q212.08499,485.37558,214.2408,484.6903Q225.50443,480.94574,231.16171,476.92493Q235.55066,473.83466,238.57822,468.9693Q240.24533,466.24396,240.94931,463.9944Q241.48099,462.28622,240.88133,461.19458"/> </g> <g style="fill:rgb(255,206,181); fill-opacity:1.0; stroke-linejoin: miter"> <path d="M419.36328,364.6463Q417.33765,362.62985,416.09207,363.08154Q412.5738,364.30365,408.82352,367.48785Q405.1184,370.58978,403.84668,372.6068Q402.60974,374.51117,403.6971,376.50925L401.57452,379.38287L407.21448,384.83444L411.32477,380.90396Q416.98285,379.1988,418.62045,377.72702Q419.7784,376.7721,420.35477,375.23688Q420.7534,374.23633,421.07852,372.1396Q421.46674,371.0706,421.58914,370.54617Q421.72888,369.98026,421.7586,369.48224Q421.9931,367.32178,419.36606,364.64905"/> </g> <g style="fill:rgb(255,206,181); fill-opacity:1.0; stroke-linejoin: miter"> <path d="M296.9201,615.4616L292.95038,629.81555Q304.11804,643.7551,307.6877,646.0082Q311.6195,648.8629,311.8001,643.6985Q312.1214,638.3017,308.92383,623.8113L296.9272,615.46655"/> </g> <g style="fill:rgb(255,206,181); fill-opacity:1.0; stroke-linejoin: miter"> <path d="M271.94238,536.0752L257.23413,531.7764Q251.77339,543.25195,250.00467,547.98285Q247.16121,555.34937,248.30142,557.1836Q249.38684,558.9703,254.81537,556.0185Q259.6101,553.42224,267.64197,547.29395L271.92606,536.11774"/> </g> <g style="fill:rgb(0,0,0); fill-opacity:1.0; stroke-linejoin: miter"> <path d="M293.59628,407.49387L293.2879,407.97003Q292.17612,407.91736,293.48712,407.52997 M296.1875,337.3115Q284.0357,337.18585,277.9723,345.07446Q272.9137,351.68137,273.4967,368.1806Q273.2852,369.5136,275.694,394.8114Q276.14175,401.52658,276.08057,406.56445L292.1327,410.1317L293.3578,408.04663Q294.8091,408.54208,298.6675,410.57245Q299.14853,410.5185,298.15237,409.02127Q297.1646,407.61072,296.23895,406.93726L293.62854,407.44928Q294.18616,406.66876,294.8213,406.51062Q295.19894,406.3305,296.26202,406.86206Q303.85168,405.53574,317.46796,404.7825Q324.35196,404.372,335.00092,404.51425Q336.82922,404.4745,338.068,404.28668Q342.82758,403.68207,342.5059,399.20056Q342.36243,394.31705,337.9052,383.15112Q332.09686,369.1116,328.22607,363.74545Q327.29468,362.50674,326.55713,361.8593Q322.76425,359.29486,321.90848,358.04474Q321.0431,357.0264,320.14172,355.66245Q316.0464,348.8719,314.82135,347.39706Q312.5852,344.4292,310.18018,342.4416Q304.57153,337.67783,296.255,337.31396"/> </g> <g style="fill:rgb(255,0,0); fill-opacity:1.0; stroke-linejoin: miter"> <path d="M401.73425,378.0197L371.69818,401.79498Q342.62134,392.78552,344.41455,393.10098L342.28378,391.9374Q336.7477,387.34,334.75363,386.3296Q331.37662,384.38715,328.10364,383.65555Q325.53125,383.02203,321.30313,382.98633L306.0174,383.51053Q304.66003,383.43774,303.01443,383.09406Q296.68253,381.10526,296.12878,381.37115Q293.28473,381.30698,289.93835,383.23334Q285.63788,385.83902,282.85736,390.25684L273.91544,407.7605Q271.4367,412.23663,267.33908,417.97723L230.78604,466.16376L235.85056,473.72955L262.68057,448.54095L276.78287,432.88348L284.98004,419.9582Q286.58264,427.50043,284.7793,454.16403L322.49673,461.0342Q338.31393,421.27365,342.26108,411.67596Q360.0896,416.8632,373.27856,416.2954Q382.56027,410.59708,388.60355,404.96945Q394.85602,399.372,408.75357,384.04474L401.73587,378.02112"/> </g> <g style="fill:rgb(0,0,0); fill-opacity:1.0; stroke-linejoin: miter"> <path d="M294.50452,622.85144Q288.3188,628.71106,288.0287,632.02795Q287.46323,634.713,289.34882,640.1627L289.62946,651.3057L292.3481,651.044L292.18625,640.3871Q295.61624,643.6572,297.26508,646.13245Q297.93988,646.8175,301.2497,653.6261Q302.04532,655.0399,302.829,656.06805Q304.57092,658.37805,306.93835,659.80597Q311.95544,662.8296,320.0118,663.9309Q327.5492,664.89185,327.8806,662.48914Q328.11975,660.9976,325.59833,658.07214Q322.51743,654.39136,314.5133,647.4221L294.537,622.89124"/> </g> <g style="fill:rgb(0,0,0); fill-opacity:1.0; stroke-linejoin: miter"> <path d="M252.21573,528.6062Q250.11984,528.6122,249.00146,529.5982Q247.89746,530.4522,246.61673,533.2573L237.20021,533.82104L236.03302,536.24524L246.55716,536.777Q246.25888,540.5096,245.19656,543.0156Q244.74963,544.1227,244.08203,545.32196Q241.24446,549.96704,241.11575,550.33997Q240.33838,551.8346,239.96167,553.0232Q239.09325,555.7462,239.6515,558.03296Q240.53271,561.74,245.34735,566.1681Q251.47433,571.478,254.85135,571.884Q256.7354,571.9584,256.3553,568.70325Q256.00464,565.3679,253.22826,556.6072L260.38138,531.9654Q256.73712,528.7085,252.22331,528.6062"/> </g> <g style="fill:rgb(0,0,0); fill-opacity:1.0; stroke-linejoin: miter"> <path d="M285.40582,448.73022Q273.59674,481.75543,273.90668,482.69562Q271.76465,490.83957,273.03604,497.65906Q276.7104,515.76886,302.6267,538.5603Q283.615,539.34717,268.78268,534.58984L266.49823,549.44214Q293.76666,557.06903,304.90366,560.95685Q299.76144,574.5263,298.30103,584.67377Q296.6584,594.54407,295.85458,619.0408L311.5431,627.3137L311.67688,627.29425L317.68945,604.81946Q320.71765,593.1863,322.11285,586.7153Q324.654,575.31525,324.94507,565.5198Q337.8706,565.49927,341.68152,561.6366Q346.74963,556.53455,345.5596,547.03894Q345.0796,543.33545,342.66446,538.48914Q329.91187,516.5176,326.04596,507.7405Q321.6555,498.238,320.1745,492.2674Q318.99823,487.70428,319.3363,483.63922Q319.52783,481.5871,320.04236,479.79776L322.49,472.9784Q323.0624,471.104,323.27756,469.58337Q323.94995,465.65717,323.37994,458.24188L285.4264,448.73538"/> </g> <g style="fill:rgb(255,206,181); fill-opacity:1.0; stroke-linejoin: miter"> <path d="M298.98877,344.32568Q293.994,343.6535,289.5017,345.44934Q285.13657,347.31912,283.6629,350.6647Q282.44604,353.32947,283.4129,357.5114Q283.81567,359.28342,284.5535,361.31042Q284.86234,362.3246,287.6004,368.7123Q288.0678,369.91095,288.14395,370.62222Q288.21176,371.43027,287.90884,371.68784Q287.85254,371.9032,286.62152,372.12567Q286.47235,372.1703,286.35168,372.31113Q286.15802,372.5432,286.34302,373.2243Q287.57788,376.305,290.19458,377.54742Q292.23468,378.55078,297.28033,377.50687Q299.45526,379.6474,303.56067,380.6642L302.84204,388.29492L309.80603,392.32135Q311.4702,393.20477,312.65228,393.3687Q314.47992,393.69495,316.1634,392.0744Q317.6848,390.72443,320.54266,385.90588L319.40765,378.1344Q323.7127,375.47064,321.40674,367.1696Q315.06335,347.28394,299.0257,344.33084"/> </g> <g style="fill:rgb(255,187,0); fill-opacity:1.0; stroke-linejoin: miter"> <path d="M231.27667,502.1533L209.00287,504.5805L190.29861,508.22012L174.4359,585.60693Q174.34029,585.8209,174.4861,585.8667L189.13982,593.756L235.32147,583.801L239.75545,507.29413L231.32693,502.18365"/> </g> <g style="fill:rgb(255,255,255); fill-opacity:1.0; stroke-linejoin: miter"> <path d="M213.75189,473.3048Q210.7477,472.81824,205.29636,481.6607Q201.91869,486.99268,194.47325,501.9734Q194.17293,503.0053,195.20422,503.26575Q195.768,503.3114,196.09448,502.79224Q204.23944,486.47455,207.86415,480.96112Q211.45357,475.3899,213.32675,475.128Q215.03847,474.8548,216.43475,480.84314Q217.51782,485.04456,218.82916,499.16168Q219.52519,500.30087,220.45613,499.37823Q220.6158,499.13354,220.6008,498.82587Q219.95584,491.90714,219.51776,488.40063Q218.81012,482.65106,218.00592,479.5446Q216.46661,473.531,213.79962,473.3094"/> </g> <g style="fill:rgb(255,255,255); fill-opacity:1.0; stroke-linejoin: miter"> <path d="M214.93848,474.91916Q211.83423,474.44376,206.18582,483.75006Q202.79459,489.23398,195.67194,503.56345Q195.34961,504.6363,196.40416,504.8811Q196.96765,504.9219,197.2911,504.38647Q205.2367,488.4773,208.82596,482.92102Q212.57935,477.0213,214.50668,476.74332Q216.2826,476.42084,217.7545,483.00778Q218.75592,487.32544,220.02489,500.79092Q220.68475,501.90668,221.64516,500.98883Q221.8064,500.73886,221.7861,500.42642Q221.13199,493.44382,220.73291,490.24536Q220.02206,484.40866,219.21722,481.25513Q217.67014,475.14764,214.99576,474.92462"/> </g> <g style="fill:rgb(255,255,255); fill-opacity:1.0; stroke-linejoin: miter"> <path d="M212.74194,474.78754Q209.54623,474.73645,206.7239,484.2569Q204.77731,490.47455,201.58626,508.08215Q201.5672,509.00372,202.46855,509.11755Q203.12036,509.10333,203.35898,508.45996Q206.91463,489.2844,208.93138,483.13928Q210.877,476.90384,212.63284,476.61588Q214.5215,476.27792,217.61652,482.90424Q220.38644,488.65848,226.07214,505.13617Q226.32608,505.64505,226.98236,505.63446Q227.57109,505.55075,227.76355,504.96384Q227.83282,504.70386,227.7451,504.43762Q224.65385,495.45264,223.193,491.5866Q220.97725,485.6568,219.13206,481.9425Q215.55315,474.7473,212.76425,474.78763"/> </g> <g style="fill:rgb(255,255,255); fill-opacity:1.0; stroke-linejoin: miter"> <path d="M214.30977,476.03436Q211.01953,475.99408,208.12424,486.05206Q206.21436,492.44662,203.15407,509.3295Q203.14706,510.26923,204.04485,510.3642Q204.68997,510.34912,204.92824,509.6991Q208.36485,491.17444,210.352,484.84546Q212.41916,478.08362,214.21817,477.8597Q216.15921,477.55862,219.35027,484.49982Q222.10419,490.34668,227.64674,506.39636Q227.9068,506.90067,228.56975,506.87842Q229.15146,506.78925,229.33768,506.18555Q229.39879,505.9182,229.30444,505.6598Q226.28949,496.89966,224.85875,493.0935Q222.56952,486.95142,220.71759,483.225Q217.14493,476.04102,214.38092,476.0343"/> </g> <g style="fill:rgb(255,206,181); fill-opacity:1.0; stroke-linejoin: miter"> <path d="M222.17412,471.32813Q221.75574,471.3275,221.47096,471.6412Q221.2035,471.95856,221.25989,472.37912Q221.27225,472.4554,221.2962,472.52625L221.92117,474.3269Q221.94873,474.40726,221.99551,474.48804Q222.26027,474.91046,222.76071,474.9363Q223.17914,474.9375,223.4642,474.62445Q223.73209,474.3078,223.6766,473.88712Q223.6655,473.81396,223.63837,473.7334L223.01563,471.9392Q222.98819,471.85876,222.94154,471.7779Q222.67734,471.35474,222.17688,471.3282"/> </g> <g style="fill:rgb(255,206,181); fill-opacity:1.0; stroke-linejoin: miter"> <path d="M217.22379,474.5417Q215.62741,478.65607,214.39417,479.92206Q213.70998,480.68982,212.806,481.07068Q212.39484,481.24963,211.84865,481.39734L209.73364,481.90515Q209.2084,482.07065,208.90811,482.29218Q207.9272,483.13348,208.4244,484.2162Q209.24997,485.5647,212.10315,485.0628Q215.15265,484.5511,221.29877,482.0435L217.23167,474.55603"/> </g> </g> </svg>