<svg width="989" height="580" viewBox="0 0 989 580" fill="none" xmlns="http://www.w3.org/2000/svg">
<path d="M798 579C894.65 579 973 564.002 973 545.5C973 526.998 894.65 512 798 512C701.35 512 623 526.998 623 545.5C623 564.002 701.35 579 798 579Z" fill="#F2F2F2"/>
<path d="M909.848 109.868C909.403 109.361 908.946 108.868 908.476 108.389C912.085 104.294 915.821 100.094 915.788 94.8311C915.748 88.435 910.073 83.5278 907.953 77.4814C905.069 69.2524 909.072 60.4367 910.718 51.8839C911.999 44.9349 911.73 37.7888 909.931 30.9558C908.131 24.1227 904.845 17.7711 900.308 12.3545C898.64 10.3843 896.705 8.47872 894.224 7.69672C890.449 6.50672 886.434 8.16003 882.5 8.64571C869.517 10.249 857.705 -0.93796 844.66 0.0635395C843.795 0.0949453 842.944 0.285526 842.148 0.625719C840.46 1.433 839.545 3.21431 838.502 4.74982C834.45 10.7121 827.645 13.6753 820.875 16.7378C820.024 16.9878 819.214 17.3593 818.47 17.8407C816.436 18.7874 814.435 19.7744 812.546 20.8924C799.763 28.4581 801.618 39.0434 809.154 45.5819C807.681 52.9219 800.178 59.3855 801.47 66.9318C802.484 72.8477 808.644 76.874 809.831 82.7586C810.52 86.1763 809.435 89.4333 807.928 92.6662C793.624 95.9763 777.465 102.072 776.204 112.83C774.011 131.546 767.407 183.236 767.407 183.236C767.407 183.236 759.757 224.651 788.826 205.073L788.453 206.175C783.214 222.034 779.639 238.394 777.784 254.992C777.489 257.461 776.898 259.407 775.822 260.042C775.432 260.272 776.203 260.638 777.882 261.094C777.692 261.791 777.488 262.483 777.306 263.182C774.112 275.286 772.07 287.666 771.209 300.155C770.391 311.217 768.865 322.216 766.642 333.083C759.757 367.721 766.642 412.148 766.642 412.148L781.666 482.885L784.237 494.979C785.934 496.856 788.009 498.354 790.326 499.373C791.332 503.707 792.03 508.107 792.414 512.539C792.455 513.032 792.488 513.532 792.52 514.032C791.619 514.147 790.755 514.455 789.985 514.935C789.216 515.416 788.559 516.057 788.061 516.816C782.707 524.346 788.826 530.37 768.172 545.43C762.836 549.321 760.262 552.858 759.61 555.863V555.864C758.907 559.098 760.433 561.715 763.157 563.487L763.163 563.49C763.627 563.79 764.11 564.06 764.608 564.298L764.631 564.309C764.884 564.43 765.143 564.545 765.408 564.654L765.411 564.655C765.677 564.764 765.949 564.867 766.227 564.964L766.276 564.98C766.537 565.07 766.803 565.155 767.074 565.234L767.132 565.252C767.413 565.333 767.699 565.408 767.989 565.478C768.014 565.484 768.039 565.489 768.063 565.495C768.33 565.557 768.6 565.615 768.873 565.667C768.908 565.674 768.943 565.681 768.979 565.687C769.271 565.742 769.567 565.79 769.865 565.833C769.898 565.838 769.93 565.842 769.963 565.846C770.23 565.883 770.5 565.915 770.772 565.942C770.824 565.947 770.875 565.953 770.927 565.957C771.225 565.985 771.525 566.007 771.828 566.024C771.866 566.026 771.905 566.027 771.944 566.029C772.212 566.041 772.481 566.049 772.751 566.052C772.814 566.053 772.877 566.054 772.941 566.055C773.243 566.056 773.546 566.053 773.85 566.042C773.89 566.041 773.93 566.038 773.97 566.037C774.239 566.026 774.508 566.011 774.778 565.99C774.85 565.985 774.921 565.98 774.993 565.974C775.296 565.949 775.599 565.919 775.903 565.881C775.939 565.877 775.975 565.871 776.011 565.867C776.283 565.832 776.554 565.792 776.825 565.747C776.901 565.735 776.977 565.722 777.052 565.709C777.354 565.656 777.655 565.599 777.955 565.534C777.984 565.528 778.012 565.521 778.041 565.514C778.316 565.454 778.589 565.387 778.861 565.316C778.938 565.296 779.015 565.276 779.091 565.255C779.388 565.174 779.684 565.088 779.978 564.994L780.027 564.978C780.306 564.888 780.583 564.79 780.858 564.689C780.932 564.661 781.006 564.633 781.08 564.605C781.369 564.494 781.657 564.379 781.942 564.255C795.711 558.231 824.015 542.418 824.015 542.418L824.015 542.274L824.014 542.178L824.013 542.038L824.013 541.913L824.011 541.693L824.009 541.497C824.008 541.419 824.007 541.341 824.006 541.254L824.003 541.023C824.002 540.918 824.001 540.815 823.999 540.699C823.998 540.621 823.996 540.535 823.995 540.453C823.993 540.332 823.991 540.216 823.989 540.085C823.985 539.877 823.981 539.658 823.976 539.428C823.835 532.847 823.186 517.732 820.19 518.322C819.169 518.523 818.476 519.957 817.76 521.609C817.644 521.39 817.526 521.167 817.406 520.935C814.49 515.312 810.273 505.661 809.862 496.229C812.214 494.525 814.392 492.593 816.365 490.461C816.365 490.461 814.828 483.985 813.52 477.155C812.387 471.237 811.424 465.047 811.775 462.6C812.54 457.329 802.596 416.667 802.596 416.667C802.596 416.667 803.621 407.721 805.679 395.289C809.679 371.125 817.559 333.784 829.316 323.227C829.592 322.986 829.859 322.752 830.135 322.541C830.135 322.541 838.549 324.047 845.434 371.486L847.431 392.616C848.003 398.467 848.994 404.27 850.399 409.98C852.452 419.085 853.1 428.45 852.319 437.751C851.447 450.205 851.072 464.866 850.911 475.16C850.789 482.916 850.789 488.202 850.789 488.202C852.213 489.404 853.75 490.467 855.379 491.373V498.283C855.362 499.749 854.786 501.153 853.769 502.209L853.742 502.238C852.657 503.459 851.866 504.912 851.432 506.487C850.097 508.891 848.967 512.795 848.494 519.075C846.964 539.406 846.199 537.147 846.199 537.147C845.321 539.345 844.738 541.651 844.465 544.003V544.003V544.003C844.421 544.443 844.394 544.886 844.386 545.329C844.385 545.399 844.385 545.468 844.385 545.538C844.384 545.741 844.387 545.944 844.396 546.146C844.4 546.245 844.405 546.344 844.412 546.443C844.421 546.593 844.434 546.742 844.45 546.891C844.464 547.026 844.48 547.16 844.499 547.294C844.513 547.389 844.527 547.485 844.543 547.579C844.574 547.759 844.611 547.938 844.652 548.114C844.671 548.193 844.691 548.271 844.712 548.349C844.761 548.533 844.814 548.715 844.875 548.893C844.895 548.949 844.917 549.004 844.938 549.059C844.998 549.222 845.064 549.381 845.137 549.538C845.158 549.585 845.178 549.633 845.201 549.68C845.29 549.862 845.391 550.038 845.497 550.21C845.527 550.257 845.556 550.305 845.587 550.351C845.7 550.523 845.822 550.688 845.953 550.847C845.984 550.884 846.017 550.92 846.048 550.956C846.192 551.123 846.346 551.281 846.509 551.429C846.526 551.444 846.545 551.458 846.563 551.473C846.731 551.62 846.907 551.757 847.091 551.882C847.12 551.902 847.147 551.923 847.176 551.942C847.379 552.074 847.589 552.194 847.806 552.301C847.849 552.323 847.892 552.344 847.936 552.365C848.169 552.476 848.409 552.573 848.654 552.657C848.696 552.671 848.74 552.684 848.782 552.698C849.062 552.789 849.346 552.866 849.633 552.927L849.664 552.933C849.962 552.994 850.278 553.041 850.608 553.077C850.653 553.082 850.697 553.089 850.743 553.093C851.07 553.125 851.414 553.143 851.772 553.149C851.839 553.15 851.906 553.151 851.974 553.151C852.337 553.153 852.715 553.142 853.111 553.115C853.173 553.111 853.236 553.105 853.299 553.1C853.72 553.068 854.155 553.024 854.614 552.96C870.678 550.701 878.328 549.195 877.563 540.159C877.102 534.713 875.807 526.804 874.851 521.38C874.367 518.624 873.475 515.955 872.205 513.461C872.245 513.038 872.282 512.603 872.315 512.155C872.591 508.42 872.576 503.977 871.443 501.003L871.796 494.41C875.781 493.398 879.382 491.24 882.153 488.202C882.153 488.202 882.268 483.315 882.604 476.839C883.109 466.831 884.119 453.021 885.978 447.54C889.038 438.504 885.978 406.878 885.978 406.878C885.978 406.878 874.503 352.661 885.213 329.318C894.661 308.727 894.578 288.129 885.491 268.053C885.671 267.911 885.834 267.75 885.978 267.572C885.978 267.572 883.683 266.066 884.448 248.747C885.032 235.529 881.162 221.883 879.296 216.156C882.221 217.409 885.219 218.486 888.273 219.38C905.867 224.651 907.397 205.073 907.397 205.073L911.222 175.706L915.759 131.932L915.758 131.93C917.002 128.496 918.669 119.918 909.848 109.868ZM832.082 80.8528C832.06 81.3374 832.027 81.8217 831.978 82.3036C831.836 83.8615 831.507 85.3965 830.998 86.8757C831.521 84.8772 831.839 82.8306 831.947 80.7676C831.991 80.7966 832.037 80.8241 832.082 80.8529L832.082 80.8528ZM878.328 187.754C878.6 188.251 878.858 188.735 879.106 189.211L877.174 188.225C877.89 184.674 879.049 181.227 880.623 177.965C882.524 174.169 884.089 170.213 885.299 166.144C885.245 170.847 885.471 175.548 885.978 180.224C887.508 192.272 878.328 187.754 878.328 187.754Z" fill="url(#paint0_linear)"/>
<path d="M813.459 24.037C811.014 25.7046 808.458 27.6321 807.588 30.4612C806.184 35.0239 809.707 39.6049 810.055 44.3659C810.689 53.0232 800.899 60.1779 802.342 68.7376C803.331 74.6046 809.345 78.5975 810.504 84.4334C812.193 92.9446 802.968 100.45 803.694 109.097C804.08 113.703 807.284 117.615 810.919 120.469C816.021 124.462 822.127 126.968 828.564 127.71C828.136 120.306 822.644 113.569 823.586 106.213C824.233 101.169 827.782 97.0439 829.835 92.3913C833.44 84.2225 832.286 74.7674 830.124 66.1043C827.961 57.4412 824.84 48.8774 824.682 39.95C824.588 34.5765 827.109 26.6777 825.26 21.5787C823.011 15.38 817.649 21.1801 813.459 24.037Z" fill="#3F3D56"/>
<path opacity="0.1" d="M813.459 24.243C811.014 25.9105 808.458 27.8381 807.588 30.6671C806.184 35.2298 809.707 39.8109 810.055 44.5718C810.689 53.2292 800.899 60.3839 802.342 68.9435C803.331 74.8105 809.345 78.8034 810.504 84.6394C812.193 93.1506 802.968 100.656 803.694 109.303C804.08 113.909 807.284 117.821 810.919 120.675C816.021 124.668 822.127 127.174 828.564 127.916C828.136 120.512 822.644 113.775 823.586 106.419C824.233 101.375 827.782 97.2499 829.835 92.5973C833.44 84.4284 832.286 74.9733 830.124 66.3103C827.961 57.6472 824.839 49.0833 824.682 40.1559C824.588 34.7824 827.109 26.8836 825.26 21.7846C823.011 15.586 817.649 21.3861 813.459 24.243Z" fill="black"/>
<path d="M820.616 523.862L813.895 530.583C813.895 530.583 789.999 543.278 792.986 526.103C793.803 520.997 793.976 515.808 793.501 510.659C792.884 503.473 791.458 496.378 789.252 489.511L811.655 485.03C807.929 496.739 814.067 511.481 817.898 518.986C819.444 522.01 820.616 523.862 820.616 523.862Z" fill="#FFB9B9"/>
<path d="M871.502 510.279C871.334 512.579 871.05 514.87 870.65 517.141C870.65 517.141 851.981 529.836 850.487 515.648C849.517 506.403 851.712 502.228 853.37 500.443L853.396 500.415C854.392 499.362 854.954 497.971 854.968 496.521V479.803L871.397 485.03L870.65 499.219C871.755 502.168 871.77 506.574 871.502 510.279Z" fill="#FFB9B9"/>
<path opacity="0.05" d="M820.616 523.862L813.895 530.583C813.895 530.583 789.999 543.278 792.986 526.103C793.803 520.997 793.976 515.808 793.501 510.659C798.736 509.89 804.934 515.648 804.934 515.648C813.686 527.999 816.046 523.325 817.898 518.986C819.444 522.01 820.616 523.862 820.616 523.862Z" fill="black"/>
<path d="M804.934 517.141C804.934 517.141 794.479 507.433 789.252 514.901C784.024 522.369 789.999 528.343 769.836 543.278C749.673 558.214 769.836 567.922 783.278 561.948C796.72 555.974 824.35 540.291 824.35 540.291C824.35 540.291 824.35 515.648 820.616 516.395C816.883 517.141 817.629 535.064 804.934 517.141Z" fill="#3F3D56"/>
<path opacity="0.05" d="M871.502 510.279C871.334 512.579 871.05 514.87 870.65 517.141C870.65 517.141 851.981 529.836 850.487 515.648C849.517 506.403 851.712 502.228 853.37 500.443C854.018 499.954 854.788 499.65 855.596 499.566C856.404 499.482 857.22 499.62 857.955 499.965C860.942 498.636 864.228 500.854 866.946 503.722C868.788 505.664 870.324 507.875 871.502 510.279Z" fill="black"/>
<path d="M857.955 501.459C857.955 501.459 849.741 496.978 848.247 517.141C846.754 537.304 846.007 535.064 846.007 535.064C846.007 535.064 838.539 552.987 854.221 550.746C869.904 548.506 877.371 547.012 876.625 538.051C876.174 532.65 874.91 524.807 873.977 519.428C873.088 514.1 870.643 509.154 866.949 505.212C864.224 502.344 860.942 500.132 857.955 501.459Z" fill="#3F3D56"/>
<path d="M884.839 405.872C884.839 405.872 887.826 437.236 884.839 446.198C883.024 451.634 882.039 465.33 881.546 475.255C881.217 481.677 881.105 486.524 881.105 486.524C866.916 501.459 850.487 486.524 850.487 486.524C850.487 486.524 850.487 481.281 850.607 473.589C850.764 463.381 851.13 448.841 851.981 436.49C852.743 427.267 852.111 417.983 850.106 408.949C848.735 403.284 847.767 397.53 847.209 391.728L845.26 370.773C838.539 323.727 830.325 322.233 830.325 322.233C830.056 322.442 829.794 322.674 829.525 322.913C818.048 333.383 810.356 370.415 806.45 394.379C804.441 406.708 803.441 415.58 803.441 415.58C803.441 415.58 813.149 455.906 812.402 461.133C812.058 463.56 812.999 469.699 814.105 475.568C815.382 482.342 816.883 488.764 816.883 488.764C798.213 508.927 785.518 493.245 785.518 493.245L783.009 481.251L768.342 411.099C768.342 411.099 761.621 367.04 768.342 332.688C770.513 321.907 772.002 311 772.8 300.032C773.64 287.651 775.633 275.376 778.752 263.365C779.663 259.81 780.674 256.283 781.784 252.783C781.784 252.783 809.826 247.907 836.231 247.907C856.036 247.907 874.914 250.647 880.358 260.251C881.613 262.461 882.753 264.677 883.779 266.897C893.233 287.217 893.517 308.089 884.092 328.954C873.637 352.104 884.839 405.872 884.839 405.872Z" fill="#3F3D56"/>
<path d="M822.11 134.793C822.11 134.793 782.531 94.467 812.402 97.4541C819.175 98.1336 823.76 96.9239 826.8 94.6537C830.265 92.0698 831.721 88.1119 832.124 83.9822C832.946 75.7453 829.578 66.8363 829.578 66.8363C829.578 66.8363 869.904 34.725 861.689 75.0508C860.787 79.1488 860.262 83.3208 860.121 87.5145C859.986 96.0725 862.802 99.3509 866.752 100.695C873.413 102.973 883.316 99.7841 887.826 107.162C896.041 120.604 822.11 134.793 822.11 134.793Z" fill="#FFB9B9"/>
<path opacity="0.1" d="M822.11 134.793C822.11 134.793 782.531 94.467 812.402 97.4541C819.175 98.1336 823.76 96.9239 826.8 94.6537C830.265 92.0698 831.721 88.1119 832.124 83.9822C832.946 75.7453 829.578 66.8363 829.578 66.8363C829.578 66.8363 869.904 34.725 861.689 75.0508C860.787 79.1488 860.262 83.3208 860.121 87.5145C859.986 96.0725 862.802 99.3509 866.752 100.695C873.413 102.973 883.316 99.7841 887.826 107.162C896.041 120.604 822.11 134.793 822.11 134.793Z" fill="black"/>
<path d="M881.852 55.6347C881.847 64.1481 878.462 72.3111 872.44 78.3292C866.419 84.3474 858.254 87.7281 849.741 87.7281C841.227 87.7281 833.062 84.3474 827.041 78.3292C821.019 72.3111 817.634 64.1481 817.629 55.6347C817.629 55.0373 817.644 54.4398 817.682 53.8499C818.146 45.5011 821.849 37.6628 828.003 32.0017C834.157 26.3406 842.276 23.3034 850.635 23.5359C858.993 23.7684 866.931 27.2522 872.761 33.2466C878.591 39.2409 881.852 47.273 881.852 55.6347V55.6347Z" fill="#FFB9B9"/>
<path opacity="0.05" d="M822.11 134.793C822.11 134.793 782.531 94.467 812.402 97.4541C819.175 98.1336 823.76 96.9239 826.8 94.6537C821.02 104.242 814.515 121.485 843.766 119.857C870.538 118.371 870.083 107.7 866.752 100.695C873.413 102.973 883.316 99.784 887.826 107.162C896.041 120.604 822.11 134.793 822.11 134.793Z" fill="black"/>
<path opacity="0.1" d="M884.839 269.959C878.043 278.793 791.418 267.211 778.752 263.365C779.663 259.81 780.674 256.283 781.784 252.783C781.784 252.783 809.826 247.907 836.231 247.907C856.036 247.907 874.914 250.647 880.358 260.251C881.613 262.461 882.753 264.677 883.779 266.897C884.257 269.571 884.839 269.959 884.839 269.959Z" fill="black"/>
<path d="M830.324 90.7331C830.324 90.7331 779.917 94.8404 777.677 114.257C775.535 132.818 769.089 184.08 769.089 184.08C769.089 184.08 761.621 225.153 789.999 205.736L789.634 206.829C784.517 222.569 781.027 238.792 779.219 255.243C778.931 257.691 778.354 259.621 777.303 260.251C773.57 262.491 877.371 277.427 884.839 267.719C884.839 267.719 882.599 266.225 883.345 249.049C884.092 231.874 877.371 213.951 877.371 213.951C877.371 213.951 871.397 196.028 879.612 178.853C887.826 161.677 884.839 156.449 884.839 156.449L913.216 134.793C913.216 134.793 919.345 124.287 908.141 111.319C904.778 107.482 900.69 104.347 896.114 102.092C891.537 99.8371 886.56 98.5066 881.469 98.1767L861.896 96.7844C861.896 96.7844 883.346 119.857 843.02 122.098C802.694 124.338 830.324 90.7331 830.324 90.7331Z" fill="#575A89"/>
<path opacity="0.05" d="M796.72 131.806C796.72 131.806 798.213 143.754 795.226 147.488C792.239 151.222 791.492 168.398 795.226 178.852" fill="black"/>
<path opacity="0.1" d="M829.525 322.913C818.047 333.383 810.356 370.415 806.45 394.379C801.014 361.021 823.603 305.804 823.603 305.804L829.525 322.913Z" fill="black"/>
<path opacity="0.1" d="M816.883 488.764C798.213 508.927 785.518 493.245 785.518 493.245L783.009 481.251C790.066 484.918 801.992 487.763 814.105 475.568C815.382 482.342 816.883 488.764 816.883 488.764Z" fill="black"/>
<path opacity="0.1" d="M881.546 475.255C881.217 481.677 881.105 486.524 881.105 486.524C866.916 501.459 850.487 486.524 850.487 486.524C850.487 486.524 850.487 481.281 850.607 473.589C856.768 477.503 867.842 481.811 881.546 475.255Z" fill="black"/>
<path d="M847.484 157.196H804.203C802.132 157.196 800.453 158.875 800.453 160.946V174.356C800.453 176.427 802.132 178.106 804.203 178.106H847.484C849.555 178.106 851.234 176.427 851.234 174.356V160.946C851.234 158.875 849.555 157.196 847.484 157.196Z" fill="#CDD0DB"/>
<path opacity="0.05" d="M847.484 157.196H804.203C802.132 157.196 800.453 158.875 800.453 160.946V174.356C800.453 176.427 802.132 178.106 804.203 178.106H847.484C849.555 178.106 851.234 176.427 851.234 174.356V160.946C851.234 158.875 849.555 157.196 847.484 157.196Z" fill="black"/>
<path d="M847.484 157.943H804.203C802.132 157.943 800.453 159.622 800.453 161.693V175.102C800.453 177.174 802.132 178.852 804.203 178.852H847.484C849.555 178.852 851.234 177.174 851.234 175.102V161.693C851.234 159.622 849.555 157.943 847.484 157.943Z" fill="#3F3D56"/>
<path d="M840.406 170.265C841.643 170.265 842.646 169.262 842.646 168.024C842.646 166.787 841.643 165.784 840.406 165.784C839.169 165.784 838.166 166.787 838.166 168.024C838.166 169.262 839.169 170.265 840.406 170.265Z" fill="#9DA7C0"/>
<path opacity="0.05" d="M778.841 190.308C779.515 188.301 780.619 186.466 782.076 184.931C783.533 183.395 785.309 182.197 787.278 181.42C790.43 180.251 793.02 177.925 794.521 174.917C797.466 168.398 802.694 161.677 816.136 166.157C829.578 170.638 812.402 173.625 812.402 173.625C812.402 173.625 843.02 169.144 831.071 178.106C819.123 187.067 804.187 192.294 804.187 192.294L796.833 200.081C795.779 201.219 794.496 202.121 793.069 202.727C791.642 203.334 790.102 203.632 788.552 203.601C787.001 203.57 785.475 203.212 784.072 202.549C782.67 201.886 781.424 200.934 780.416 199.755C779.342 198.461 778.629 196.904 778.353 195.244C778.076 193.585 778.244 191.881 778.841 190.308Z" fill="black"/>
<path d="M778.094 188.814C778.768 186.808 779.872 184.972 781.329 183.437C782.787 181.902 784.562 180.704 786.531 179.927C789.684 178.757 792.273 176.432 793.774 173.423C796.72 166.904 801.947 160.183 815.389 164.664C828.831 169.144 811.655 172.132 811.655 172.132C811.655 172.132 842.273 167.651 830.324 176.612C818.376 185.573 803.441 190.801 803.441 190.801L796.086 198.588C795.032 199.725 793.75 200.627 792.322 201.234C790.895 201.84 789.355 202.138 787.805 202.107C786.254 202.077 784.728 201.718 783.326 201.055C781.924 200.392 780.678 199.44 779.67 198.262C778.595 196.967 777.883 195.411 777.606 193.751C777.329 192.091 777.498 190.388 778.094 188.814V188.814Z" fill="#FFB9B9"/>
<path opacity="0.05" d="M883.345 204.243L878.118 216.938L871.427 212.017L852.728 198.269L840.033 190.054C822.11 176.612 840.033 174.372 840.033 174.372C833.312 171.385 840.033 168.398 840.033 168.398C863.929 163.17 859.449 182.586 859.449 182.586L874.586 190.435L879.612 193.041L883.345 204.243Z" fill="black"/>
<path d="M884.839 202.749L879.612 215.444L872.92 210.523L854.221 196.775L841.526 188.561C823.603 175.119 841.526 172.878 841.526 172.878C834.805 169.891 841.526 166.904 841.526 166.904C865.423 161.677 860.942 181.093 860.942 181.093L876.079 188.941L881.105 191.548L884.839 202.749Z" fill="#FFB9B9"/>
<path opacity="0.05" d="M884.839 202.749L879.612 215.444L872.92 210.523C878.977 210.74 886.131 207.812 876.079 188.941L881.105 191.548L884.839 202.749Z" fill="black"/>
<path d="M912.47 127.325L913.911 133.2L909.483 176.612L905.749 205.736C905.749 205.736 904.255 225.152 887.079 219.925C869.904 214.698 868.41 209.47 868.41 209.47C868.41 209.47 893.054 217.685 877.371 188.561C877.371 188.561 886.333 193.041 884.839 181.093C883.345 169.144 884.839 148.235 884.839 148.235L912.47 127.325Z" fill="#575A89"/>
<path opacity="0.05" d="M881.852 55.6347C881.852 62.9173 879.377 69.9837 874.832 75.6746C870.288 81.3655 863.945 85.3429 856.842 86.9544C855.767 83.8478 855.005 80.7562 855.789 77.6123C857.305 71.5111 864.347 67.0603 863.563 60.8248C863.498 60.1228 863.253 59.4493 862.854 58.8682C861.278 56.7922 858.067 57.8227 855.513 58.338C852.185 58.8896 848.769 58.218 845.898 56.4473C843.026 54.6765 840.892 51.9262 839.891 48.7046C837.023 51.5259 833.431 53.4995 829.511 54.4075C825.592 55.3155 821.498 55.1225 817.682 53.8499C818.146 45.5011 821.849 37.6628 828.003 32.0017C834.157 26.3406 842.276 23.3034 850.635 23.5359C858.993 23.7684 866.931 27.2522 872.761 33.2466C878.591 39.2409 881.852 47.273 881.852 55.6347V55.6347Z" fill="black"/>
<path d="M840.641 47.2134C841.641 50.4343 843.773 53.1842 846.644 54.9545C849.515 56.7247 852.93 57.3955 856.257 56.8429C858.813 56.3326 862.023 55.3013 863.598 57.3779C864 57.955 864.245 58.6271 864.307 59.3277C865.097 65.5674 858.054 70.0155 856.537 76.1193C854.975 82.4048 859.554 88.4756 860.529 94.8783C861.062 98.3809 860.498 101.949 860.539 105.492C860.579 109.034 861.374 112.84 864.001 115.218C866.627 117.596 871.481 117.62 873.241 114.545C881.644 118.985 878.288 132.748 884.669 139.792C888.188 143.677 893.978 144.611 899.196 144.113C900.418 144.095 901.608 143.711 902.61 143.011C903.475 142.16 904.058 141.064 904.28 139.872C905.598 134.887 905.371 129.62 903.63 124.766C902.792 122.447 901.592 120.101 901.903 117.654C902.283 115.757 903.179 114 904.493 112.579C908.505 107.605 913.98 102.796 913.94 96.4062C913.901 90.0629 908.361 85.1963 906.292 79.1999C903.476 71.039 907.384 62.2962 908.991 53.8141C910.245 46.9337 909.986 39.8626 908.231 33.0926C906.476 26.3226 903.267 20.0161 898.828 14.6116C897.2 12.6577 895.311 10.7679 892.889 9.99232C889.203 8.81217 885.284 10.4518 881.444 10.9335C868.77 12.5235 857.239 1.42909 844.504 2.4223C843.659 2.45365 842.828 2.64276 842.052 2.97987C840.404 3.78043 839.511 5.54701 838.492 7.06986C832.871 15.4739 821.819 17.8687 813.154 23.0789C787.848 38.2948 821.288 65.839 840.641 47.2134Z" fill="#3F3D56"/>
<path opacity="0.3" d="M783.278 558.961C774.551 562.839 762.995 560.106 761.477 553.626C759.648 562.182 773.308 566.379 783.278 561.948C796.72 555.974 824.35 540.291 824.35 540.291C824.35 540.291 824.35 539.131 824.312 537.326C823.508 537.782 796.519 553.076 783.278 558.961Z" fill="white"/>
<path opacity="0.3" d="M876.586 537.621C875.725 544.339 868.273 545.752 854.221 547.759C847.075 548.78 844.743 545.612 844.313 541.863C843.846 546.665 845.21 552.034 854.221 550.746C869.904 548.506 877.371 547.012 876.625 538.051C876.613 537.912 876.598 537.764 876.586 537.621Z" fill="white"/>
<g opacity="0.1">
<path opacity="0.1" d="M902.182 140.823C896.964 141.32 891.175 140.386 887.656 136.501C881.275 129.458 884.63 115.695 876.227 111.255C874.468 114.33 869.613 114.306 866.987 111.928C864.361 109.55 863.565 105.744 863.525 102.201C863.485 98.6583 864.049 95.0902 863.516 91.5876C862.541 85.1848 857.962 79.114 859.524 72.8286C861.041 66.7248 868.083 62.2766 867.293 56.037C867.231 55.3364 866.987 54.6643 866.585 54.0872C865.009 52.0107 861.799 53.0419 859.243 53.5522C855.916 54.1048 852.501 53.434 849.631 51.6638C846.76 49.8935 844.628 47.1436 843.628 43.9226C826.328 60.5717 797.78 40.3312 809.988 24.9799C790.939 40.4612 822.19 64.6663 840.64 46.9097C841.64 50.1307 843.773 52.8806 846.644 54.6508C849.514 56.4211 852.929 57.0919 856.256 56.5393C858.812 56.029 862.022 54.9977 863.598 57.0743C864 57.6514 864.244 58.3235 864.306 59.0241C865.096 65.2638 858.054 69.7119 856.537 75.8157C854.975 82.1012 859.554 88.1719 860.529 94.5747C861.062 98.0773 860.498 101.645 860.538 105.188C860.578 108.731 861.374 112.537 864 114.915C866.626 117.293 871.481 117.317 873.24 114.242C881.643 118.682 878.288 132.445 884.669 139.488C888.188 143.373 893.977 144.307 899.195 143.81C900.418 143.791 901.607 143.407 902.61 142.708C903.258 142.116 903.734 141.361 903.988 140.521C903.396 140.674 902.792 140.775 902.182 140.823V140.823Z" fill="black"/>
<path opacity="0.1" d="M841.479 3.7791C841.735 3.3956 841.984 2.99669 842.239 2.60156C842.177 2.62799 842.112 2.64677 842.052 2.67622C840.404 3.47682 839.51 5.24339 838.492 6.76622C838.141 7.29002 837.77 7.79116 837.379 8.26962C838.953 6.97609 840.334 5.46391 841.479 3.7791Z" fill="black"/>
</g>
<path opacity="0.1" d="M800.453 212.685C800.453 212.685 798.521 219.406 811.216 222.393C823.911 225.38 800.453 212.685 800.453 212.685Z" fill="black"/>
<path opacity="0.1" d="M794.895 232.599C794.895 232.599 788.414 237.328 804.047 245.543C819.68 253.757 794.895 232.599 794.895 232.599Z" fill="black"/>
<path opacity="0.1" d="M780.349 311.508C780.349 311.508 797.944 306.529 800.348 299.062C802.753 291.594 780.349 311.508 780.349 311.508Z" fill="black"/>
<path opacity="0.1" d="M780.349 406.099C780.349 406.099 787.929 409.833 792.727 409.335C797.525 408.838 780.349 406.099 780.349 406.099Z" fill="black"/>
<path opacity="0.1" d="M783.009 416.554C783.009 416.554 786.436 418.297 792.727 418.546C799.019 418.795 783.009 416.554 783.009 416.554Z" fill="black"/>
<path d="M919.537 455.127C921.865 455.895 924.359 456.161 926.82 455.906C929.282 455.651 931.644 454.881 933.721 453.657C935.799 452.433 937.534 450.789 938.79 448.854C940.047 446.918 940.79 444.745 940.962 442.504C941.133 440.264 940.729 438.018 939.779 435.944C938.83 433.87 937.362 432.024 935.491 430.552C933.621 429.079 931.398 428.021 928.999 427.46C926.6 426.899 924.09 426.85 921.667 427.319L922.068 434.782L918.172 428.386C914.349 430.014 911.395 432.952 909.96 436.553C909.451 437.814 909.141 439.135 909.04 440.475C908.794 443.62 909.686 446.751 911.58 449.395C913.474 452.039 916.268 454.052 919.537 455.127V455.127Z" fill="#57B894"/>
<path d="M939.031 541C937.648 534.71 943.642 529.134 949.563 525.51C955.484 521.886 962.402 518.325 964.423 512.174C967.326 503.334 958.678 495.239 951.946 488.258C946.952 483.077 942.664 477.386 939.17 471.303C937.651 468.914 936.617 466.305 936.114 463.594C935.584 459.676 936.993 455.777 938.414 452.039C943.145 439.589 948.204 427.242 953.591 415" stroke="#3F3D56" stroke-miterlimit="10"/>
<path d="M920.537 453.127C922.865 453.895 925.359 454.161 927.82 453.906C930.282 453.651 932.644 452.881 934.721 451.657C936.798 450.433 938.534 448.789 939.79 446.854C941.047 444.918 941.79 442.745 941.962 440.504C942.133 438.264 941.728 436.018 940.779 433.944C939.83 431.87 938.362 430.024 936.491 428.552C934.621 427.079 932.398 426.021 929.999 425.46C927.6 424.899 925.09 424.85 922.667 425.319L923.068 432.782L919.172 426.386C915.349 428.014 912.395 430.952 910.96 434.553C910.451 435.814 910.141 437.135 910.04 438.475C909.794 441.62 910.686 444.751 912.58 447.395C914.474 450.039 917.268 452.052 920.537 453.127V453.127Z" stroke="#3F3D56" stroke-miterlimit="10"/>
<path d="M936.96 412.224C937.874 410.017 939.408 408.047 941.42 406.495C943.433 404.943 945.86 403.86 948.477 403.344L949.795 410.196L952.237 403C955.629 403.044 958.917 404.03 961.626 405.816C964.335 407.601 966.326 410.094 967.311 412.935C968.296 415.775 968.223 418.815 967.105 421.617C965.986 424.419 963.878 426.838 961.086 428.523C958.294 430.209 954.963 431.074 951.572 430.995C948.181 430.916 944.907 429.895 942.222 428.081C939.537 426.268 937.581 423.754 936.635 420.904C935.689 418.053 935.803 415.014 936.96 412.224V412.224Z" fill="#57B894"/>
<path d="M937.959 409.553C938.874 407.267 940.408 405.227 942.42 403.62C944.433 402.013 946.86 400.89 949.477 400.357L950.795 407.453L953.237 400C956.629 400.046 959.917 401.067 962.626 402.916C965.335 404.766 967.326 407.348 968.311 410.289C969.296 413.231 969.223 416.38 968.104 419.282C966.986 422.184 964.878 424.689 962.086 426.435C959.294 428.181 955.963 429.077 952.572 428.995C949.181 428.913 945.907 427.856 943.222 425.977C940.537 424.099 938.581 421.495 937.635 418.543C936.689 415.591 936.803 412.443 937.959 409.553V409.553Z" stroke="#3F3D56" stroke-miterlimit="10"/>
<path d="M949.544 488.131C953.238 489.345 957.295 489.285 960.943 487.963C964.592 486.64 967.575 484.147 969.325 480.959C971.075 477.771 971.47 474.111 970.433 470.677C969.397 467.242 967.002 464.273 963.706 462.336L961.829 468.062L960.498 460.883C960.485 460.878 960.471 460.873 960.457 460.869C956.468 459.558 952.067 459.736 948.223 461.365C944.379 462.994 941.406 465.94 939.959 469.555C938.512 473.17 938.709 477.158 940.506 480.642C942.304 484.126 945.555 486.82 949.544 488.131H949.544Z" fill="#57B894"/>
<path d="M949.544 485.161C953.238 486.333 957.295 486.275 960.943 484.998C964.591 483.721 967.575 481.314 969.325 478.236C971.075 475.158 971.47 471.624 970.433 468.308C969.397 464.992 967.002 462.126 963.706 460.255L961.829 465.784L960.498 458.853C960.485 458.847 960.471 458.843 960.457 458.839C958.482 458.212 956.385 457.932 954.286 458.014C952.187 458.096 950.126 458.539 948.223 459.318C946.32 460.097 944.61 461.196 943.192 462.553C941.774 463.91 940.676 465.497 939.959 467.226C939.243 468.954 938.922 470.789 939.016 472.626C939.11 474.462 939.616 476.265 940.506 477.93C941.396 479.596 942.653 481.091 944.203 482.332C945.754 483.573 947.569 484.534 949.544 485.161V485.161Z" stroke="#3F3D56" stroke-miterlimit="10"/>
<path d="M932.246 512.01C932.881 515.286 934.74 518.265 937.511 520.447C940.282 522.628 943.796 523.88 947.464 523.992C951.132 524.104 954.731 523.069 957.657 521.061C960.584 519.054 962.659 516.195 963.537 512.965C964.414 509.735 964.039 506.329 962.474 503.32C960.91 500.311 958.252 497.88 954.945 496.437C951.639 494.993 947.885 494.624 944.314 495.391C940.742 496.158 937.571 498.014 935.33 500.649L942.462 510.378L932.718 505.214C931.962 507.413 931.8 509.743 932.246 512.01V512.01Z" fill="#57B894"/>
<path d="M933.246 510.01C933.881 513.286 935.74 516.265 938.511 518.446C941.282 520.628 944.796 521.88 948.464 521.992C952.132 522.104 955.731 521.069 958.657 519.061C961.584 517.054 963.66 514.195 964.537 510.965C965.414 507.735 965.038 504.329 963.474 501.32C961.91 498.311 959.252 495.88 955.945 494.437C952.639 492.993 948.885 492.624 945.314 493.391C941.742 494.158 938.571 496.014 936.33 498.649L943.462 508.378L933.718 503.214C932.962 505.413 932.8 507.743 933.246 510.01V510.01Z" stroke="#3F3D56" stroke-miterlimit="10"/>
<path d="M917 549.416C917 549.416 931.244 544.453 935.536 541.735C939.829 539.017 957.446 535.772 958.511 540.131C959.576 544.49 979.916 561.809 963.836 561.924C947.755 562.039 926.471 564.27 922.187 561.949C917.902 559.629 917 549.416 917 549.416Z" fill="#656380"/>
<path opacity="0.2" d="M964.126 560.331C948.044 560.449 926.759 562.745 922.474 560.357C919.211 558.538 917.911 552.011 917.476 549C917.174 549.012 917 549.017 917 549.017C917 549.017 917.902 559.53 922.187 561.919C926.472 564.307 947.757 562.011 963.839 561.892C968.481 561.858 970.085 560.347 969.997 558.108C969.352 559.461 967.581 560.305 964.126 560.331Z" fill="black"/>
<defs>
<linearGradient id="paint0_linear" x1="838.1" y1="566.055" x2="838.1" y2="-3.05176e-05" gradientUnits="userSpaceOnUse">
<stop stop-color="#808080" stop-opacity="0.25"/>
<stop offset="0.53514" stop-color="#808080" stop-opacity="0.12"/>
<stop offset="1" stop-color="#808080" stop-opacity="0.1"/>
</linearGradient>
</defs>
</svg>
